<?xml version="1.0" encoding="UTF-8" standalone="no"?>
<svg
   xmlns:dc="http://purl.org/dc/elements/1.1/"
   xmlns:cc="http://creativecommons.org/ns#"
   xmlns:rdf="http://www.w3.org/1999/02/22-rdf-syntax-ns#"
   xmlns:svg="http://www.w3.org/2000/svg"
   xmlns="http://www.w3.org/2000/svg"
   xmlns:sodipodi="http://sodipodi.sourceforge.net/DTD/sodipodi-0.dtd"
   xmlns:inkscape="http://www.inkscape.org/namespaces/inkscape"
   inkscape:version="1.0 (4035a4fb49, 2020-05-01)"
   sodipodi:docname="emaapou5white1.svg"
   xml:space="preserve"
   style="enable-background:new 0 0 204.33 81.67;"
   viewBox="0 0 204.33 81.67"
   y="0px"
   x="0px"
   id="Layer_1"
   version="1.1"><metadata
   id="metadata25"><rdf:RDF><cc:Work
       rdf:about=""><dc:format>image/svg+xml</dc:format><dc:type
         rdf:resource="http://purl.org/dc/dcmitype/StillImage" /><dc:title></dc:title></cc:Work></rdf:RDF></metadata><defs
   id="defs23" /><sodipodi:namedview
   inkscape:current-layer="Layer_1"
   inkscape:window-maximized="0"
   inkscape:window-y="153"
   inkscape:window-x="4755"
   inkscape:cy="40.834999"
   inkscape:cx="102.165"
   inkscape:zoom="5.5645279"
   showgrid="false"
   id="namedview21"
   inkscape:window-height="934"
   inkscape:window-width="1988"
   inkscape:pageshadow="2"
   inkscape:pageopacity="0"
   guidetolerance="10"
   gridtolerance="10"
   objecttolerance="10"
   borderopacity="1"
   bordercolor="#666666"
   pagecolor="#ffffff" />
<style
   id="style2"
   type="text/css">
	.st0{fill:#FFFFFF;}
</style>
<path
   id="path4"
   d="M191.67,74.3c3.42,0,5.47-1.73,6.81-3.88v3.46h2.92V53.99h-2.92v11.39c0,3.74-2.58,6.24-5.97,6.24  c-3.5,0-5.5-2.31-5.5-6V53.99h-2.96v12.35C184.05,71.07,186.86,74.3,191.67,74.3 M163.08,51.33c0.58-1.39,1-1.89,2-1.89  c1.31,0,3.42,1.54,5.16,1.54c1.85,0,2.89-1.15,3.66-4.04l-1.81-0.5c-0.58,1.38-1,1.88-2,1.88c-1.31,0-3.43-1.54-5.16-1.54  c-1.85,0-2.89,1.15-3.66,4.04L163.08,51.33z M167.51,71.69c-4.2,0-7.35-3.46-7.35-7.73v-0.08c0-4.2,2.96-7.7,7.27-7.7  c4.19,0,7.39,3.5,7.39,7.77v0.08C174.82,68.23,171.82,71.69,167.51,71.69 M167.43,74.34c6,0,10.42-4.77,10.42-10.39v-0.08  c0-5.62-4.38-10.31-10.35-10.31c-6,0-10.39,4.77-10.39,10.39v0.08C157.12,69.65,161.46,74.34,167.43,74.34 M141.69,71.65  c-3.7,0-7.2-3.08-7.2-7.69v-0.08c0-4.54,3.5-7.66,7.2-7.66c3.77,0,7,3,7,7.7v0.08C148.69,68.8,145.54,71.65,141.69,71.65   M131.65,80.03h2.96v-9.96c1.54,2.23,3.93,4.23,7.62,4.23c4.81,0,9.5-3.84,9.5-10.35v-0.08c0-6.54-4.73-10.31-9.5-10.31  c-3.66,0-6,2.04-7.62,4.42v-4h-2.96V80.03z M114.72,71.92c-2.69,0-5-1.46-5-3.97v-0.08c0-2.39,2.12-4,5.81-4  c2.42,0,4.35,0.42,5.81,0.85v1.85C121.34,69.73,118.37,71.92,114.72,71.92 M114.14,74.3c3.5,0,5.77-1.61,7.16-3.38v2.96h2.92V61.72  c0-2.54-0.69-4.47-2.07-5.85c-1.42-1.42-3.62-2.19-6.43-2.19c-2.93,0-5.04,0.69-7.23,1.69l0.88,2.42c1.85-0.85,3.69-1.42,6.04-1.42  c3.73,0,5.89,1.85,5.89,5.39v0.61c-1.77-0.5-3.54-0.85-6.08-0.85c-5.04,0-8.5,2.23-8.5,6.5v0.08  C106.72,72.19,110.41,74.3,114.14,74.3 M91.29,71.92c-2.69,0-5-1.46-5-3.97v-0.08c0-2.39,2.12-4,5.81-4c2.42,0,4.35,0.42,5.81,0.85  v1.85C97.91,69.73,94.94,71.92,91.29,71.92 M90.71,74.3c3.5,0,5.77-1.61,7.16-3.38v2.96h2.92V61.72c0-2.54-0.69-4.47-2.07-5.85  c-1.42-1.42-3.62-2.19-6.43-2.19c-2.93,0-5.04,0.69-7.23,1.69l0.88,2.42c1.85-0.85,3.7-1.42,6.04-1.42c3.73,0,5.89,1.85,5.89,5.39  v0.61c-1.77-0.5-3.54-0.85-6.08-0.85c-5.04,0-8.5,2.23-8.5,6.5v0.08C83.29,72.19,86.98,74.3,90.71,74.3 M47.04,73.88H50V62.53  c0-3.66,2.39-6.27,5.54-6.27c3.16,0,5.12,2.19,5.12,5.92v11.7h2.92V62.41c0-3.93,2.5-6.16,5.5-6.16c3.23,0,5.16,2.15,5.16,6v11.62  h2.96V61.56c0-4.92-2.81-8-7.38-8c-3.46,0-5.58,1.77-7,3.96c-1.08-2.23-3.15-3.96-6.39-3.96c-3.35,0-5.12,1.81-6.43,3.77v-3.34  h-2.96V73.88z"
   class="st0" />
<path
   id="path6"
   d="M2.48,42.15c0.82,7.58,3.75,14.52,9.09,20.72c6.31,7.34,14.85,11.57,26.27,11.01l-0.03-7.86  c-7.21,0.66-14.05-2.82-18.98-7.92c-4.13-4.27-6.43-9.65-7.2-15.95H2.48z M63.24,30.86H12.07c1.81-6.31,4.49-11.04,8.02-14.2  c4.84-4.33,10.63-6.5,17.37-6.5c4.08,0,7.98,0.86,11.69,2.59c3.71,1.73,6.68,4,8.94,6.81C60.34,22.38,62.06,26.15,63.24,30.86   M72.85,37.21c-0.3-8.79-2.75-16.22-7.48-22.19C58.39,6.15,49.04,1.71,37.34,1.71c-11.37,0-20.44,4.33-27.22,13  c-5.18,6.6-7.8,14.12-7.96,22.5H72.85z"
   class="st0" />
<g
   id="g8">
</g>
<g
   id="g10">
</g>
<g
   id="g12">
</g>
<g
   id="g14">
</g>
<g
   id="g16">
</g>
<g
   id="g18">
</g>
</svg>
