<svg id="visual" viewBox="0 0 900 600" width="900" height="600" xmlns="http://www.w3.org/2000/svg"
    xmlns:xlink="http://www.w3.org/1999/xlink" version="1.1">
    <rect x="0" y="0" width="900" height="600" fill="#333333"></rect>
    <path
        d="M0 475L25 475C50 475 100 475 150 474.7C200 474.3 250 473.7 300 463.5C350 453.3 400 433.7 450 433.7C500 433.7 550 453.3 600 460.7C650 468 700 463 750 458.8C800 454.7 850 451.3 875 449.7L900 448L900 601L875 601C850 601 800 601 750 601C700 601 650 601 600 601C550 601 500 601 450 601C400 601 350 601 300 601C250 601 200 601 150 601C100 601 50 601 25 601L0 601Z"
        fill="#1d4c7a"></path>
    <path
        d="M0 512L25 513.3C50 514.7 100 517.3 150 509.7C200 502 250 484 300 483.2C350 482.3 400 498.7 450 507.3C500 516 550 517 600 515.8C650 514.7 700 511.3 750 500.8C800 490.3 850 472.7 875 463.8L900 455L900 601L875 601C850 601 800 601 750 601C700 601 650 601 600 601C550 601 500 601 450 601C400 601 350 601 300 601C250 601 200 601 150 601C100 601 50 601 25 601L0 601Z"
        fill="#8d9cb6"></path>
    <path
        d="M0 526L25 532.5C50 539 100 552 150 555.5C200 559 250 553 300 544.7C350 536.3 400 525.7 450 526C500 526.3 550 537.7 600 543.7C650 549.7 700 550.3 750 548.2C800 546 850 541 875 538.5L900 536L900 601L875 601C850 601 800 601 750 601C700 601 650 601 600 601C550 601 500 601 450 601C400 601 350 601 300 601C250 601 200 601 150 601C100 601 50 601 25 601L0 601Z"
        fill="#f5f5f5"></path>
</svg>
