<?xml version="1.0" encoding="UTF-8"?>
<svg width="511.02" height="151.54" enable-background="new 0 0 553 185" version="1.1" viewBox="0 0 511.02 151.54" xml:space="preserve" xmlns="http://www.w3.org/2000/svg" xmlns:cc="http://creativecommons.org/ns#" xmlns:dc="http://purl.org/dc/elements/1.1/" xmlns:rdf="http://www.w3.org/1999/02/22-rdf-syntax-ns#"><metadata><rdf:RDF><cc:Work rdf:about=""><dc:format>image/svg+xml</dc:format><dc:type rdf:resource="http://purl.org/dc/dcmitype/StillImage"/><dc:title/></cc:Work></rdf:RDF></metadata>
<g transform="translate(-19.99,-15.73)">
	<g fill="#231F20">
		<path d="m184.32 59.638c0-0.932 0.839-1.677 1.771-1.677h2.329l42.017 52.357h0.186v-49.655c0-0.932 0.746-1.771 1.771-1.771h3.26c0.933 0 1.771 0.838 1.771 1.771v62.698c0 0.932-0.838 1.678-1.771 1.678h-1.677l-42.762-53.383h-0.093v50.682c0 0.931-0.746 1.77-1.771 1.77h-3.26c-0.932 0-1.771-0.839-1.771-1.77z"/>
		<path d="m247.49 121.68 28.321-62.699c0.28-0.559 0.747-1.024 1.584-1.024h0.932c0.838 0 1.304 0.465 1.583 1.024l28.136 62.699c0.559 1.211-0.186 2.423-1.583 2.423h-3.728c-0.839 0-1.397-0.559-1.583-1.025l-6.895-15.372h-33.072l-6.802 15.372c-0.186 0.467-0.745 1.025-1.583 1.025h-3.725c-1.399-1e-3 -2.145-1.212-1.585-2.423zm44.252-19.751c-4.565-10.154-9.037-20.402-13.602-30.557h-0.746l-13.602 30.557z"/>
		<path d="m323.79 65.135h-16.21c-1.024 0-1.771-0.839-1.771-1.771v-2.701c0-0.932 0.747-1.771 1.771-1.771h39.501c1.025 0 1.77 0.838 1.77 1.771v2.701c0 0.932-0.744 1.771-1.77 1.771h-16.211v57.203c0 0.931-0.838 1.77-1.77 1.77h-3.54c-0.932 0-1.771-0.839-1.771-1.77v-57.203z"/>
		<path d="m346.62 121.68 28.321-62.699c0.28-0.559 0.745-1.024 1.584-1.024h0.933c0.839 0 1.303 0.465 1.584 1.024l28.136 62.699c0.558 1.211-0.187 2.423-1.586 2.423h-3.726c-0.839 0-1.397-0.559-1.583-1.025l-6.895-15.372h-33.074l-6.8 15.372c-0.187 0.467-0.745 1.025-1.584 1.025h-3.727c-1.397-1e-3 -2.141-1.212-1.583-2.423zm44.252-19.751c-4.563-10.154-9.036-20.402-13.6-30.557h-0.747l-13.601 30.557z"/>
		<path d="m417.33 60.663c0-0.932 0.746-1.771 1.77-1.771h24.13c11.181 0 20.311 8.758 20.311 19.844 0 8.571-5.683 15.745-13.788 19.006l12.764 23.663c0.65 1.212 0 2.702-1.584 2.702h-4.752c-0.839 0-1.306-0.466-1.492-0.839l-12.389-24.688h-17.794v23.757c0 0.931-0.839 1.77-1.77 1.77h-3.636c-1.023 0-1.77-0.839-1.77-1.77zm25.433 31.768c7.175 0 13.417-5.962 13.417-13.602 0-7.081-6.242-13.136-13.417-13.136h-18.072v26.738z"/>
		<path d="m507.8 57.961c9.41 0 16.211 3.26 22.547 8.664 0.744 0.745 0.84 1.863 0.092 2.608l-2.514 2.515c-0.748 0.932-1.492 0.839-2.422-0.093-4.846-4.192-11.461-6.988-17.795-6.988-14.719 0-25.994 12.392-25.994 26.832 0 14.347 11.275 26.737 25.994 26.737 8.105 0 12.855-3.261 17.795-6.987 0.93-0.744 1.674-0.651 2.236-0.279l2.793 2.516c0.746 0.56 0.559 1.863-0.094 2.516-6.334 6.148-14.348 9.037-22.639 9.037-18.631 0-33.631-14.813-33.631-33.446 1e-3 -18.633 15.001-33.632 33.632-33.632z"/>
	</g>
	
		
			
				<path d="m133.93 86.12h-39.373c-1.518 0-2.749-1.229-2.749-2.749v-62.144h-36.629c-16.374 0-29.696 13.323-29.696 29.7 0 16.375 13.322 29.695 29.696 29.695 11.905 0 21.585-9.681 21.585-21.583s-9.681-21.588-21.585-21.588c-7.431 0-13.475 6.045-13.475 13.476 0 7.43 6.044 13.476 13.475 13.476 1.517 0 2.749 1.23 2.749 2.748s-1.231 2.75-2.749 2.75c-10.461 0-18.973-8.511-18.973-18.973s8.512-18.973 18.973-18.973c14.936 0 27.083 12.151 27.083 27.085s-12.147 27.08-27.083 27.08c-19.406 0-35.193-15.787-35.193-35.192 0-19.408 15.787-35.197 35.193-35.197h39.377c1.518 0 2.749 1.231 2.749 2.749v62.144h36.625c16.378 0 29.7-13.321 29.7-29.695 0-16.377-13.322-29.7-29.7-29.7-11.9 0-21.586 9.686-21.586 21.587 0 11.903 9.686 21.589 21.586 21.589 7.434 0 13.479-6.045 13.479-13.476s-6.045-13.476-13.479-13.476c-1.517 0-2.749-1.23-2.749-2.749 0-1.517 1.231-2.749 2.749-2.749 10.465 0 18.976 8.512 18.976 18.973s-8.511 18.972-18.976 18.972c-14.933 0-27.083-12.151-27.083-27.086 0-14.933 12.15-27.084 27.083-27.084 19.406 0 35.197 15.789 35.197 35.197 0 19.406-15.791 35.193-35.197 35.193z" fill="#231F20"/>
			
			
				
					<path d="m133.93 167.27c-14.933 0-27.083-12.151-27.083-27.087 0-14.934 12.15-27.083 27.083-27.083 10.465 0 18.976 8.512 18.976 18.973 0 10.46-8.511 18.969-18.976 18.969-1.517 0-2.749-1.229-2.749-2.749 0-1.517 1.231-2.748 2.749-2.748 7.434 0 13.479-6.044 13.479-13.472 0-7.431-6.045-13.476-13.479-13.476-11.9 0-21.586 9.683-21.586 21.586 0 11.904 9.686 21.59 21.586 21.59 16.378 0 29.7-13.325 29.7-29.7 0-16.378-13.322-29.701-29.7-29.701h-78.751c-16.374 0-29.696 13.323-29.696 29.701 0 16.375 13.322 29.7 29.696 29.7 11.905 0 21.585-9.686 21.585-21.59 0-11.903-9.681-21.586-21.585-21.586-7.431 0-13.475 6.045-13.475 13.476 0 7.428 6.044 13.472 13.475 13.472 1.517 0 2.749 1.231 2.749 2.748 0 1.521-1.231 2.749-2.749 2.749-10.461 0-18.973-8.509-18.973-18.969 0-10.461 8.512-18.973 18.973-18.973 14.936 0 27.083 12.149 27.083 27.083 0 14.936-12.147 27.087-27.083 27.087-19.406 0-35.193-15.791-35.193-35.197 0-19.41 15.787-35.198 35.193-35.198h78.751c19.406 0 35.197 15.788 35.197 35.198 0 19.406-15.791 35.197-35.197 35.197z" fill="#231F20"/>
				
				
					
						<path d="m94.561 99.878" fill="#231F20" stroke="#000" stroke-linecap="round" stroke-linejoin="round" stroke-miterlimit="10" stroke-width="3"/>
				
				
					<path d="m94.561 167.27c-1.518 0-2.749-1.231-2.749-2.75v-64.642c0-1.519 1.23-2.749 2.749-2.749 1.518 0 2.749 1.23 2.749 2.749v64.641c-1e-3 1.519-1.232 2.751-2.749 2.751z" fill="#231F20"/>
				
			
		
	
</g>
</svg>
