<?xml version="1.0" encoding="utf-8"?>
<!-- Generator: Adobe Illustrator 16.0.3, SVG Export Plug-In . SVG Version: 6.00 Build 0)  -->
<!DOCTYPE svg PUBLIC "-//W3C//DTD SVG 1.1//EN" "http://www.w3.org/Graphics/SVG/1.1/DTD/svg11.dtd">
<svg version="1.1" id="Layer_1" xmlns="http://www.w3.org/2000/svg" xmlns:xlink="http://www.w3.org/1999/xlink" x="0px" y="0px"
	 width="130px" height="38px" viewBox="0 0 130 38" enable-background="new 0 0 130 38" xml:space="preserve">
<g>
	<path fill="#EA5F41" d="M73.964,22.594l1.636-2.406c0.861,0.861,2.19,1.58,3.844,1.58c1.041,0,1.688-0.358,1.688-0.951
		c0-1.582-6.77-0.27-6.77-4.885c0-2.012,1.688-3.808,4.759-3.808c1.921,0,3.592,0.575,4.866,1.67l-1.688,2.317
		c-1.006-0.844-2.315-1.257-3.502-1.257c-0.897,0-1.293,0.305-1.293,0.826c0,1.473,6.771,0.359,6.771,4.813
		c0,2.406-1.777,4.005-4.992,4.005C76.855,24.497,75.168,23.725,73.964,22.594z"/>
	<path fill="#EA5F41" d="M93.669,24.281l-0.594-1.725h-4.724l-0.593,1.725h-3.503l4.51-11.979h3.896l4.508,11.979H93.669z
		 M90.725,15.356l-1.527,4.508h3.035L90.725,15.356z"/>
	<path fill="#EA5F41" d="M104.732,24.281l-2.012-4.022h-1.58v4.022h-3.088V12.303h5.998c2.657,0,4.166,1.76,4.166,3.987
		c0,2.083-1.258,3.197-2.389,3.592l2.441,4.399H104.732z M105.075,16.272c0-0.826-0.665-1.275-1.491-1.275h-2.441v2.568h2.441
		C104.41,17.565,105.075,17.116,105.075,16.272z"/>
	<path fill="#EA5F41" d="M112.979,24.281l-4.508-11.979h3.502l2.963,8.64l2.945-8.64h3.502l-4.508,11.979H112.979z"/>
</g>
<g>
	<path fill="#1D1D1B" d="M12.393,30.561l-0.084,0.31c-0.385-0.112-0.777-0.161-1.1-0.161c-1.163,0-1.702,0.854-1.702,2.186
		c0,1.071,0.273,2.045,1.597,2.045c0.259,0,0.693-0.049,0.938-0.133v-1.996h0.392v2.27c-0.448,0.146-0.931,0.203-1.379,0.203
		c-1.443,0-1.975-0.96-1.975-2.416c0-1.021,0.42-2.494,2.101-2.494C11.678,30.371,12.126,30.456,12.393,30.561z"/>
	<path fill="#1D1D1B" d="M13.483,35.232v-4.784h2.752v0.321h-2.339v1.767h2.003v0.321h-2.003v2.045h2.458v0.33H13.483z"/>
	<path fill="#1D1D1B" d="M19.049,35.281c-1.45,0-1.989-0.918-1.989-2.402c0-1.311,0.497-2.508,1.989-2.508
		c1.513,0,1.905,1.205,1.905,2.486C20.954,34.236,20.31,35.273,19.049,35.281z M19.049,30.693c-1.261,0-1.562,1.1-1.562,2.199
		c0,1.344,0.455,2.065,1.541,2.065c1.022,0,1.492-0.933,1.492-2.08C20.52,31.905,20.303,30.693,19.049,30.693z"/>
	<path fill="#1D1D1B" d="M24.565,30.616l-0.133,0.315c-0.469-0.183-0.826-0.225-1.148-0.225c-0.616,0-1.072,0.314-1.072,0.966
		c0,0.582,0.582,0.743,1.17,0.896c0.693,0.189,1.506,0.38,1.506,1.373c0,0.953-0.736,1.339-1.695,1.339
		c-0.497,0-1.064-0.099-1.499-0.351l0.14-0.309c0.539,0.259,0.966,0.322,1.345,0.322c0.813,0,1.282-0.268,1.282-1.002
		c0-0.639-0.477-0.819-1.128-0.987c-0.819-0.218-1.548-0.435-1.548-1.274c0-0.841,0.638-1.316,1.527-1.316
		C23.662,30.364,24.152,30.414,24.565,30.616z"/>
	<path fill="#1D1D1B" d="M28.814,30.561l-0.098,0.315c-0.364-0.119-0.743-0.168-1.058-0.168c-1.114,0-1.611,0.849-1.611,2.171
		c0,1.094,0.259,2.066,1.611,2.066c0.252,0,0.784-0.049,1.163-0.161l0.084,0.294c-0.322,0.126-0.896,0.203-1.317,0.203
		c-1.45,0-1.968-0.945-1.968-2.409c0-1.029,0.385-2.501,2.003-2.501C28.128,30.371,28.548,30.456,28.814,30.561z"/>
	<path fill="#1D1D1B" d="M29.674,35.232v-4.791h0.406v4.791H29.674z"/>
	<path fill="#1D1D1B" d="M31.27,35.232v-4.784h2.753v0.321h-2.339v1.767h2.003v0.321h-2.003v2.045h2.458v0.33H31.27z"/>
	<path fill="#1D1D1B" d="M38.068,34.532v-4.084h0.406l-0.007,4.784h-0.399c-0.35-0.539-1.744-2.711-2.094-3.243l-0.561-0.903
		c-0.007,0-0.021,0.007-0.028,0.007v4.14h-0.399v-4.783h0.42c0.336,0.505,1.751,2.703,2.073,3.215l0.56,0.869L38.068,34.532
		L38.068,34.532z"/>
	<path fill="#1D1D1B" d="M42.646,30.561l-0.098,0.315c-0.364-0.119-0.743-0.168-1.058-0.168c-1.114,0-1.611,0.849-1.611,2.171
		c0,1.094,0.259,2.066,1.611,2.066c0.252,0,0.784-0.049,1.163-0.161l0.084,0.294c-0.322,0.126-0.896,0.203-1.317,0.203
		c-1.45,0-1.968-0.945-1.968-2.409c0-1.029,0.385-2.501,2.003-2.501C41.96,30.371,42.38,30.456,42.646,30.561z"/>
	<path fill="#1D1D1B" d="M43.575,35.232v-4.784h2.753v0.321h-2.339v1.767h2.003v0.321h-2.003v2.045h2.458v0.33H43.575z"/>
	<path fill="#1D1D1B" d="M49.141,35.232v-4.791h1.471c1.506,0,1.912,1.105,1.912,2.389c0,1.311-0.448,2.402-1.982,2.402H49.141z
		 M49.561,30.771v4.125h0.925c0.42,0,1.611-0.021,1.611-2.018c0-2.038-1.086-2.107-1.562-2.107H49.561z"/>
	<path fill="#1D1D1B" d="M56.121,35.232l-0.42-1.311h-1.968c-0.14,0.439-0.266,0.875-0.406,1.311H52.9l1.562-4.784h0.533
		c0.525,1.598,1.036,3.194,1.555,4.784H56.121z M54.965,31.576c-0.056-0.203-0.168-0.567-0.231-0.771h-0.021l-0.238,0.771
		l-0.63,2.023h1.758C55.392,32.921,55.182,32.241,54.965,31.576z"/>
	<path fill="#1D1D1B" d="M58.192,35.232v-4.455h-1.541v-0.336h3.48v0.336h-1.527l-0.007,4.455H58.192z"/>
	<path fill="#1D1D1B" d="M63.24,35.232l-0.42-1.311h-1.968c-0.14,0.439-0.266,0.875-0.406,1.311h-0.427l1.562-4.784h0.533
		c0.525,1.598,1.036,3.194,1.555,4.784H63.24z M62.084,31.576c-0.056-0.203-0.168-0.567-0.231-0.771h-0.021l-0.238,0.771
		l-0.63,2.023h1.758C62.511,32.921,62.301,32.241,62.084,31.576z"/>
	<path fill="#1D1D1B" d="M68.945,35.232l-0.422-1.311h-1.967c-0.141,0.439-0.267,0.875-0.406,1.311h-0.428l1.563-4.784h0.533
		c0.524,1.598,1.035,3.194,1.555,4.784H68.945z M67.789,31.576c-0.057-0.203-0.168-0.567-0.23-0.771h-0.021L67.3,31.576L66.67,33.6
		h1.758C68.217,32.921,68.007,32.241,67.789,31.576z"/>
	<path fill="#1D1D1B" d="M73.124,34.532v-4.084h0.405l-0.006,4.784h-0.399c-0.351-0.539-1.744-2.711-2.095-3.243l-0.561-0.903
		c-0.007,0-0.021,0.007-0.027,0.007v4.14h-0.399v-4.783h0.421c0.336,0.505,1.751,2.703,2.073,3.215l0.56,0.869L73.124,34.532
		L73.124,34.532z"/>
	<path fill="#1D1D1B" d="M74.648,35.232v-4.791h1.471c1.506,0,1.912,1.105,1.912,2.389c0,1.311-0.448,2.402-1.982,2.402H74.648z
		 M75.068,30.771v4.125h0.925c0.42,0,1.61-0.021,1.61-2.018c0-2.038-1.086-2.107-1.563-2.107H75.068z"/>
	<path fill="#1D1D1B" d="M83.911,30.561l-0.099,0.315c-0.363-0.119-0.742-0.168-1.058-0.168c-1.114,0-1.61,0.849-1.61,2.171
		c0,1.094,0.258,2.066,1.61,2.066c0.252,0,0.784-0.049,1.162-0.161l0.084,0.294c-0.321,0.126-0.896,0.203-1.315,0.203
		c-1.451,0-1.969-0.945-1.969-2.409c0-1.029,0.385-2.501,2.004-2.501C83.225,30.371,83.645,30.456,83.911,30.561z"/>
	<path fill="#1D1D1B" d="M86.689,35.281c-1.451,0-1.989-0.918-1.989-2.402c0-1.311,0.497-2.508,1.989-2.508
		c1.513,0,1.904,1.205,1.904,2.486C88.596,34.236,87.95,35.273,86.689,35.281z M86.689,30.693c-1.262,0-1.563,1.1-1.563,2.199
		c0,1.344,0.455,2.065,1.54,2.065c1.022,0,1.492-0.933,1.492-2.08C88.16,31.905,87.943,30.693,86.689,30.693z"/>
	<path fill="#1D1D1B" d="M89.648,35.232v-4.784h0.42v4.462h2.558v0.322H89.648z"/>
	<path fill="#1D1D1B" d="M93.366,35.232v-4.784h0.42v4.462h2.557v0.322H93.366z"/>
	<path fill="#1D1D1B" d="M97.006,35.232v-4.784h2.753v0.321h-2.34v1.767h2.003v0.321h-2.003v2.045h2.458v0.33H97.006z"/>
	<path fill="#1D1D1B" d="M103.775,30.561l-0.098,0.315c-0.363-0.119-0.742-0.168-1.058-0.168c-1.113,0-1.61,0.849-1.61,2.171
		c0,1.094,0.26,2.066,1.61,2.066c0.252,0,0.784-0.049,1.163-0.161l0.084,0.294c-0.322,0.126-0.896,0.203-1.317,0.203
		c-1.448,0-1.968-0.945-1.968-2.409c0-1.029,0.386-2.501,2.003-2.501C103.091,30.371,103.512,30.456,103.775,30.561z"/>
	<path fill="#1D1D1B" d="M105.818,35.232v-4.455h-1.539v-0.336h3.479v0.336h-1.526l-0.008,4.455H105.818z"/>
	<path fill="#1D1D1B" d="M108.527,35.232v-4.791h0.406v4.791H108.527z"/>
	<path fill="#1D1D1B" d="M111.973,35.281c-1.449,0-1.988-0.918-1.988-2.402c0-1.311,0.498-2.508,1.988-2.508
		c1.514,0,1.905,1.205,1.905,2.486C113.878,34.236,113.232,35.273,111.973,35.281z M111.973,30.693c-1.261,0-1.562,1.1-1.562,2.199
		c0,1.344,0.455,2.065,1.541,2.065c1.022,0,1.491-0.933,1.491-2.08C113.443,31.905,113.227,30.693,111.973,30.693z"/>
	<path fill="#1D1D1B" d="M117.938,34.532v-4.084h0.406l-0.007,4.784h-0.399c-0.35-0.539-1.744-2.711-2.094-3.243l-0.561-0.903
		c-0.008,0-0.021,0.007-0.028,0.007v4.14h-0.399v-4.783h0.422c0.336,0.505,1.75,2.703,2.072,3.215l0.561,0.869L117.938,34.532
		L117.938,34.532z"/>
	<path fill="#1D1D1B" d="M122.096,30.616l-0.134,0.315c-0.469-0.183-0.825-0.225-1.147-0.225c-0.617,0-1.071,0.314-1.071,0.966
		c0,0.582,0.581,0.743,1.17,0.896c0.692,0.189,1.506,0.38,1.506,1.373c0,0.953-0.735,1.339-1.694,1.339
		c-0.498,0-1.064-0.099-1.5-0.351l0.142-0.309c0.538,0.259,0.966,0.322,1.345,0.322c0.813,0,1.281-0.268,1.281-1.002
		c0-0.639-0.477-0.819-1.129-0.987c-0.818-0.218-1.547-0.435-1.547-1.274c0-0.841,0.638-1.316,1.526-1.316
		C121.191,30.364,121.682,30.414,122.096,30.616z"/>
</g>
<g>
	<path stroke="#FFFFFF" stroke-width="0.5" d="M55.06,27.673l-0.432-5.442l-0.053-0.484l-0.213-0.86v-0.702l0.052-0.541l0.054-0.592
		l0.159-1.293l0.056-1.457l-0.215-0.538l-0.106-0.646L54.18,13.66c0,0-0.504-2.621-1.185-3.556
		c-0.684-0.934-1.188-1.869-1.365-1.869c-0.181,0-0.288-0.072-0.361,0.075c-0.072,0.142,0.323,2.443,0.323,3.34
		c0,0.899,0.038,2.693,0,3.019c-0.031,0.301-0.066,1.518-0.071,1.689c0,0.125-0.001,0.215-0.001,0.215v-0.181
		c0,0,0-0.021,0.001-0.034c-0.002-0.563-0.06-2.213-0.645-3.596c-0.72-1.688-1.366-3.017-1.584-3.267
		c-0.213-0.251-0.433-0.649-0.607-0.649c-0.182,0-0.36-0.07-0.253,0.973c0.108,1.039,0.323,2.37,0.356,3.124
		c0.038,0.754,0,1.904,0,1.904s-0.033,1.113-0.103,1.509c-0.072,0.396,0.213-1.474-0.541-3.343C47.39,11.146,46.6,9.638,46.6,9.638
		s-0.504-0.682-0.61-0.754c-0.108-0.072-0.433-0.218-0.504-0.072c-0.071,0.144,0.143,0.683,0.29,1.616
		c0.143,0.934,0.215,2.153,0.215,2.443c0,0.285-0.037,1.003-0.108,1.542c-0.034,0.267-0.087,0.742-0.128,1.189
		c0.016,0.706-0.037,1.161-0.052,1.039c-0.019-0.146,0.01-0.578,0.052-1.039c-0.021-0.971-0.172-2.42-0.734-3.522
		c-0.97-1.904-1.327-2.515-1.475-2.656c-0.142-0.145-0.538-0.469-0.681-0.433c-0.145,0.034-0.288,0.213-0.288,0.395
		c0,0.178,0.79,1.976,0.755,2.946c-0.035,0.972,0.071,2.191-0.072,2.802c-0.052,0.219-0.09,0.475-0.117,0.713
		c0.011,0.518-0.064,0.795-0.064,0.795s0.015-0.369,0.064-0.795c-0.009-0.411-0.072-0.969-0.279-1.685
		c-0.467-1.614-0.935-2.513-1.583-3.483c-0.644-0.97-1.111-1.509-1.401-1.581c-0.287-0.073-0.323,0.181-0.323,0.181
		s0.357,0.752,0.502,1.546c0.145,0.789,0.433,2.225,0.433,2.944c0,0.717,0.106,1.581,0.035,1.905
		c-0.014,0.063-0.008,0.134-0.014,0.202c0.087,0.446,0.117,1.03,0.122,1.161c0.001,0.017,0.001,0.035,0.001,0.035
		s0-0.02-0.001-0.035c-0.004-0.064-0.018-0.209-0.072-0.396c-0.057-0.202-0.076-0.492-0.05-0.766
		c-0.026-0.134-0.057-0.257-0.094-0.348c-0.178-0.43-0.754-1.976-0.754-1.976s-0.431-1.15-0.826-1.689
		c-0.396-0.539-0.97-1.436-1.293-1.797c-0.324-0.358-0.79-0.717-0.898-0.717c-0.106,0-0.216-0.07-0.18,0.359
		c0.035,0.431,0.396,1.148,0.468,1.616c0.07,0.469,0.396,1.223,0.539,1.759c0.143,0.541,0.106,1.258,0.181,1.797
		c0.03,0.235,0.053,0.482,0.077,0.72c0.085,0.553,0.139,1.038,0.102,0.826c-0.042-0.224-0.071-0.517-0.102-0.826
		c-0.075-0.483-0.173-1.018-0.258-1.188c-0.182-0.356-0.934-2.045-1.187-2.405c-0.251-0.359-1.077-1.366-1.328-1.617
		S34.421,9.85,34.241,9.85c-0.18,0-0.395-0.072-0.395,0.108s0.215,0.682,0.466,1.401c0.25,0.719,0.573,1.581,0.789,2.549
		c0.218,0.97,0.361,1.33,0.433,2.158c0.072,0.824,0.072,1.15,0.072,1.15s-0.18-2.015-0.754-2.84
		c-0.576-0.826-1.546-2.263-1.797-2.584c-0.25-0.326-0.862-0.937-1.146-1.152c-0.291-0.214-0.541-0.357-0.756-0.288
		c-0.218,0.073-0.109,0.361,0,0.757c0.105,0.395,0.788,1.578,1.041,2.405c0.251,0.826,0.504,1.724,0.612,2.229
		c0.106,0.504,0.286,0.827,0.359,1.293c0.061,0.403,0.146,0.763,0.168,0.858c0.004,0.015,0.01,0.041,0.01,0.041
		s-0.006-0.026-0.01-0.041c-0.079-0.324-0.665-2.653-1.5-3.585c-0.899-1.007-1.654-1.979-2.083-2.302
		c-0.433-0.321-0.97-0.97-1.223-0.97c-0.25,0-0.428,0.145-0.393,0.358c0.035,0.218,1.042,1.616,1.222,2.192
		c0.176,0.574,0.897,1.869,1.04,2.661c0.098,0.537,0.277,1.25,0.395,1.712c0.053,0.196,0.085,0.336,0.1,0.403
		c0.002,0.01,0.008,0.031,0.009,0.038c0.004,0.021,0,0-0.009-0.038c-0.017-0.073-0.052-0.212-0.1-0.403
		c-0.181-0.665-0.6-1.92-1.364-2.685c-1.113-1.113-2.191-2.01-2.443-2.225c-0.251-0.215-1.113-0.862-1.364-0.862
		c-0.253,0-0.649-0.108-0.468,0.287c0.178,0.396,0.827,0.972,1.293,1.797c0.466,0.827,1.075,1.724,1.366,2.479
		c0.288,0.752,0.682,1.616,0.789,2.082c0.07,0.304,0.138,0.461,0.179,0.541c0.023,0.042,0.039,0.07,0.039,0.07
		s-0.016-0.028-0.039-0.07c-0.138-0.248-0.646-1.154-1.078-1.799c-0.501-0.752-0.684-1.22-1.078-1.759
		c-0.396-0.541-0.898-1.077-1.293-1.403c-0.395-0.323-0.752-0.717-1.436-1.075c-0.684-0.362-1.079-0.539-1.26-0.467
		c-0.177,0.071-0.034,0.323,0.146,0.576c0.181,0.25,1.151,1.005,1.616,1.938c0.469,0.936,0.97,1.796,1.294,2.623
		c0.323,0.825,0.683,1.688,0.683,1.688l0.359,0.396l0.214,0.144l-0.18,0.324c-0.181,0.325-0.108,0.611,0,1.239
		c0.11,0.628,0,0.702,0,1.13c0,0.434,0.18,0.793,0.11,1.348c-0.073,0.562-0.11,0.595-0.324,1.67
		c-0.216,1.08-0.108,1.781-0.108,1.781v0.35h28.575L55.06,27.673z"/>
	<path stroke="#FFFFFF" stroke-width="0.5" d="M26.375,26.921c0.035-0.541,0.25-2.229,0.359-2.444
		c0.106-0.217,0.214-0.539,0.214-0.539v-0.215l-0.037-0.145l-0.106-0.359l-0.071-0.47v-0.536l-0.073-1.042v-0.396v-0.358
		l0.037-0.146l-0.11-0.071c0,0,0.073-0.179-0.682-0.358c-0.752-0.177-1.401-0.182-2.979-0.827c-1.583-0.646-2.875-1.005-3.881-1.221
		s-2.514-0.466-4.023-0.395c-1.508,0.073-2.731,0.106-4.385,0.431c-1.651,0.323-3.054,0.681-3.951,1.114
		c-0.899,0.431-1.33,0.753-1.363,0.898c-0.037,0.145-0.108,0.395,0.106,0.43c0.215,0.037,1.187-0.213,2.227-0.43
		c1.042-0.215,2.98-0.539,5.39-0.324c2.408,0.215,3.843,0.109,5.603,0.974c1.759,0.862,2.694,1.36,3.019,1.899
		c0.325,0.539,0.431,0.613,0.396,0.791c-0.039,0.183-0.11,0.289-0.899,0.037c-0.792-0.25-1.654-0.47-2.086-0.432
		c-0.43,0.033-0.789,0-0.86,0.182c-0.07,0.18,0.792,0.432,1.436,0.787c0.647,0.361,1.188,0.721,1.116,1.008
		c-0.073,0.287-0.109,0.504-0.469,0.432c-0.356-0.072-2.729-0.788-5.352-0.719c-2.623,0.07-4.959,0.324-5.57,0.433
		c-0.609,0.104-0.972,0.179-1.113,0.25c-0.145,0.071-0.254,0.254-0.254,0.254s-0.067,0.18,0.148,0.25
		c0.215,0.071,2.837-0.287,3.59-0.22c0.753,0.076,3.308-0.067,4.529,0.146c1.222,0.217,2.406,0.396,2.799,0.611
		c0.396,0.215,0.757,0.357,0.504,0.504c-0.25,0.141-0.572,0.033-0.825,0.105c-0.251,0.069-0.504,0.18-0.359,0.357
		c0.145,0.182,0.935,0.575,1.077,0.757c0.035,0.042,0.056,0.097,0.065,0.151h6.788C26.338,27.611,26.359,27.154,26.375,26.921z"/>
	<path stroke="#FFFFFF" stroke-width="0.5" d="M71.417,27.296c0-0.565-0.082-2.749-0.082-2.749s-0.081-0.701-0.162-1.209
		c-0.081-0.518-0.835-0.703-0.835-0.703h-1.105c0,0-0.672-1.187-1.023-1.777c-0.35-0.592-0.809-1.482-1.13-2.264
		c-0.323-0.779-0.97-2.775-1.239-3.367c-0.271-0.595-1.131-1.969-1.697-2.668c-0.566-0.7-2.077-2.128-2.694-2.559
		c-0.622-0.433-2.371-1.43-2.91-1.778C58,7.871,57.46,7.492,56.894,7.063c-0.565-0.431-1.318-0.915-1.967-1.266
		c-0.646-0.35-1.886-0.943-3.18-1.482c-1.291-0.537-3.259-0.968-4.633-1.264c-1.375-0.297-3.045-0.243-3.045-0.243
		s-1.347,0.051-1.886,0.188c0,0-0.213,0.081-0.242,0.162c-0.026,0.081,0.133,0.242,0.242,0.377c0.109,0.134,0.649,0.216,1.589,0.378
		c0.946,0.163,1.294,0.188,1.754,0.298c0.457,0.104,1.347,0.374,1.347,0.374s2.935,1.078,3.342,1.268
		c0.402,0.189,1.749,1.024,2.773,1.67c1.024,0.646,1.241,1.616,1.349,2.158c0.105,0.538-0.028,1.721-0.028,1.721
		s0.056,1.024-0.053,1.886c-0.11,0.864,0.161,2.291,0.374,2.884c0.219,0.59,0.109,1.32,0,1.913
		c-0.107,0.593-0.188,1.212-0.293,2.047c-0.108,0.836,0.186,1.671,0.215,1.94c0.025,0.269,0,0.404-0.243,0.809
		c-0.242,0.406-0.593,0.834-0.97,2.21c-0.238,0.87-0.26,1.979-0.196,2.99h18.289C71.423,27.762,71.417,27.484,71.417,27.296z"/>
	<path fill="#1D1D1B" stroke="#FFFFFF" stroke-width="0.5" d="M21.569,26.246c-0.42,0.102-0.882,0.492-0.916,0.939
		c-0.048,0.685,0.399,0.686,0.891,0.892"/>
	<g>
		<path fill="#1D1D1B" stroke="#FFFFFF" stroke-width="0.5" d="M54.144,22.178c-1.029,0.188-2.53-0.164-3.073,0.971"/>
		<path fill="#1D1D1B" stroke="#FFFFFF" stroke-width="0.5" d="M51.396,22.178c-1.026,0.188-2.529-0.164-3.07,0.971"/>
		<path fill="#1D1D1B" stroke="#FFFFFF" stroke-width="0.5" d="M48.377,22.361c-1.027,0.188-2.529-0.162-3.068,0.969"/>
		<path fill="#1D1D1B" stroke="#FFFFFF" stroke-width="0.5" d="M45.583,22.552c-0.893,0.119-2.186-0.095-2.654,0.597"/>
		<path fill="#1D1D1B" stroke="#FFFFFF" stroke-width="0.5" d="M43.099,22.443c-0.864,0.184-2.123-0.156-2.575,0.928"/>
		<path fill="#1D1D1B" stroke="#FFFFFF" stroke-width="0.5" d="M40.54,22.688c-1.164,0.218-1.996-0.213-2.833,0.621"/>
		<path fill="#1D1D1B" stroke="#FFFFFF" stroke-width="0.5" d="M37.707,22.82c-0.813,0.084-1.832-0.078-2.258,0.406"/>
		<path fill="#1D1D1B" stroke="#FFFFFF" stroke-width="0.5" d="M35.554,22.959c-0.767,0.098-1.885-0.082-2.289,0.482"/>
		<path fill="#1D1D1B" stroke="#FFFFFF" stroke-width="0.5" d="M33.316,23.148c-0.811,0.188-1.996-0.164-2.424,0.969"/>
		<path fill="#1D1D1B" stroke="#FFFFFF" stroke-width="0.5" d="M31.027,23.63c-0.793,0.093-1.953-0.075-2.372,0.46"/>
		<path fill="#1D1D1B" stroke="#FFFFFF" stroke-width="0.5" d="M28.682,23.873c-0.568,0.09-1.395-0.076-1.696,0.46"/>
	</g>
	<path opacity="0.5" fill="#1D1D1B" stroke="#FFFFFF" stroke-width="0.5" enable-background="new    " d="M54.469,22.717"/>
	<path fill="#1D1D1B" stroke="#FFFFFF" stroke-width="0.5" d="M58.889,13.808c0,0,1.542-1.007,2.296,0.068
		c0.754,1.08,0.754,1.98,0.29,2.481l-0.07,0.143c0,0-0.141,0.092-0.536-0.089c-0.393-0.177-1.769-0.307-1.802-0.127
		c-0.038,0.182,0,0,0,0s-0.466,0.073-0.576-0.033c-0.105-0.11-0.214-0.935-0.105-1.473C58.491,14.24,58.889,13.808,58.889,13.808z"
		/>
	<path fill="#1D1D1B" stroke="#FFFFFF" stroke-width="0.5" d="M64.958,22.391c0.102,0.443,0.208,0.939,0.215,1.403"/>
	<path fill="#1D1D1B" stroke="#FFFFFF" stroke-width="0.5" d="M62.41,22.536c0.049,0.509,0.213,0.944,0.213,1.473"/>
	<path fill="#1D1D1B" stroke="#FFFFFF" stroke-width="0.5" d="M59.318,22.896c0,0.463-0.03,0.957-0.143,1.4"/>
	<path fill="#1D1D1B" stroke="#FFFFFF" stroke-width="0.5" d="M58.957,24.516c-0.208,0.365-0.803,0.56-1.22,0.606
		c-0.583,0.067-0.848-0.035-1.256,0.397"/>
	<path fill="#1D1D1B" stroke="#FFFFFF" stroke-width="0.5" d="M59.318,11.113c-0.307,0.027-0.577-0.181-0.86-0.256
		c-0.291-0.075-0.593-0.059-0.891-0.113c-0.603-0.104-0.989-0.166-1.292,0.51c-0.417,0.926-0.154,2.475-0.154,3.523
		c0,0.643,0.035,1.263,0.035,1.902c0,0.645-0.143,1.188-0.216,1.797c-0.065,0.526-0.118,1.252,0.011,1.758
		c0.147,0.574,0.286,1.078,0.313,1.688c0.008,0.188,0,0.388,0,0.577"/>
	<path fill="#1D1D1B" stroke="#FFFFFF" stroke-width="0.5" d="M61.475,16.357"/>
	<path fill="none" stroke="#FFFFFF" stroke-width="0.5" d="M68.561,23.873c-0.729-1.859-2.209-1.967-2.828-1.83
		c-0.623,0.135-0.757,0.458-0.863,0.379c-0.11-0.085-0.377-0.328-0.512-0.354c-0.137-0.025-0.702-0.025-1.131-0.025
		c-0.431,0-0.646,0.404-0.646,0.404s-0.139,0.133-0.46-0.025c-0.323-0.162-0.566-0.162-0.863-0.219
		c-0.296-0.055-1.401,0.027-1.616,0.188c-0.216,0.161-0.323,0.623-0.352,0.486c-0.023-0.135-0.106-0.325-0.106-0.325l-0.485-0.239
		l-0.619-0.053c0,0-0.916,0.077-1.376,0.215c-0.458,0.133-0.564,0.645-0.593,0.565c-0.025-0.081-0.348-0.46-0.671-0.513
		l-0.218-0.055h-0.324l-0.428,0.078c0,0-0.485,0.891-1.107,2.292c-0.316,0.718-0.329,1.998-0.205,3.233h16.139
		C69.43,27.127,69.264,25.672,68.561,23.873z"/>
	<path stroke="#FFFFFF" stroke-width="0.5" d="M37.734,15.603c0.03,0.309,0.06,0.603,0.102,0.826
		C37.873,16.64,37.82,16.155,37.734,15.603z"/>
	<path stroke="#FFFFFF" stroke-width="0.5" d="M30.792,17.962c0.048,0.191,0.083,0.331,0.1,0.403
		C30.877,18.298,30.845,18.158,30.792,17.962z"/>
	<path stroke="#FFFFFF" stroke-width="0.5" d="M30.893,18.366c0.009,0.038,0.013,0.059,0.009,0.038
		C30.9,18.397,30.895,18.375,30.893,18.366z"/>
	<path stroke="#FFFFFF" stroke-width="0.5" d="M51.521,16.573c0,0,0.001-0.09,0.001-0.215c0,0.013-0.001,0.034-0.001,0.034V16.573z"
		/>
	<path stroke="#FFFFFF" stroke-width="0.5" d="M40.565,16.644c0.054,0.186,0.068,0.332,0.072,0.396
		c-0.005-0.131-0.035-0.715-0.122-1.161C40.489,16.152,40.508,16.442,40.565,16.644z"/>
	<path stroke="#FFFFFF" stroke-width="0.5" d="M45.702,16.644c0.015,0.122,0.067-0.333,0.052-1.039
		C45.712,16.066,45.684,16.498,45.702,16.644z"/>
	<path stroke="#FFFFFF" stroke-width="0.5" d="M43.144,15.849c-0.049,0.426-0.064,0.795-0.064,0.795S43.155,16.366,43.144,15.849z"
		/>
	<path fill="none" stroke="#FFFFFF" stroke-width="0.5" stroke-miterlimit="10" d="M24.944,28.077
		c-0.002-0.101-0.006-0.199-0.006-0.298c0-0.519-0.013-1.037-0.056-1.539c-0.037-0.453,0.021-0.934,0.138-1.342
		c0.08-0.285,0.037-0.271,0.32-0.401c0.242-0.113,0.466-0.179,0.703-0.245"/>
	<path fill="none" stroke="#FFFFFF" stroke-width="0.5" stroke-miterlimit="10" d="M23.615,28.077
		c0.054-0.388,0.113-0.771,0.078-1.185c-0.035-0.428-0.311-1.054-0.073-1.455c0.186-0.317,0.673-0.584,1.05-0.541"/>
	<path fill="none" stroke="#FFFFFF" stroke-width="0.5" stroke-miterlimit="10" d="M22.154,28.077
		c-0.038-0.315,0.04-0.712-0.017-0.997c-0.075-0.382-0.253-0.881,0.073-1.189c0.189-0.179,0.644-0.354,0.896-0.428"/>
	<path fill="none" stroke="#FFFFFF" stroke-width="0.5" stroke-miterlimit="10" d="M50.334,28.077
		c-0.044-0.823-0.031-1.661,0.039-2.507c0.061-0.748,0.228-1.533,0.551-2.195c0.388-0.797,0.541-1.268,0.58-2.221
		c0.075-1.757-0.054-3.567-0.054-5.336"/>
	<path fill="none" stroke="#FFFFFF" stroke-width="0.5" stroke-miterlimit="10" d="M47.586,28.077
		c-0.044-0.823-0.032-1.661,0.039-2.507c0.061-0.748,0.228-1.533,0.55-2.195c0.385-0.797,0.541-1.268,0.581-2.221
		c0.073-1.757-0.056-3.567-0.056-5.336"/>
	<path fill="none" stroke="#FFFFFF" stroke-width="0.5" stroke-miterlimit="10" d="M44.936,28.077
		c-0.031-0.823-0.022-1.661,0.027-2.507c0.042-0.748,0.156-1.533,0.38-2.195c0.269-0.797,0.372-1.268,0.402-2.221
		c0.051-1.757-0.037-3.567-0.037-5.336"/>
	<path fill="none" stroke="#FFFFFF" stroke-width="0.5" stroke-miterlimit="10" d="M42.454,28.077
		c-0.026-0.823-0.02-1.661,0.022-2.507c0.04-0.748,0.139-1.533,0.334-2.195c0.232-0.797,0.325-1.268,0.35-2.221
		c0.044-1.757-0.032-3.567-0.032-5.336"/>
	<path fill="none" stroke="#FFFFFF" stroke-width="0.5" stroke-miterlimit="10" d="M39.903,28.077
		c-0.037-0.784-0.027-1.583,0.031-2.388c0.053-0.715,0.191-1.469,0.463-2.103c0.325-0.763,0.271-1.226,0.302-2.14
		c0.062-1.682-0.024-3.233-0.134-5.037"/>
	<path fill="none" stroke="#FFFFFF" stroke-width="0.5" stroke-miterlimit="10" d="M37.438,28.077
		c-0.017-0.823-0.013-1.661,0.015-2.507c0.024-0.748,0.086-1.533,0.21-2.195c0.151-0.797,0.207-1.268,0.224-2.221
		c0.025-1.757-0.051-2.958-0.051-4.725"/>
	<path fill="none" stroke="#FFFFFF" stroke-width="0.5" stroke-miterlimit="10" d="M35.158,28.077
		c-0.026-0.81-0.027-1.632,0.003-2.466c0.029-0.661,0.094-1.361,0.225-1.951c0.157-0.706,0.221-1.124,0.237-1.973
		c0.029-1.563-0.022-3.17-0.022-4.737"/>
	<path fill="none" stroke="#FFFFFF" stroke-width="0.5" stroke-miterlimit="10" d="M32.759,28.077
		c-0.029-0.712-0.022-1.438,0.018-2.169c0.035-0.613,0.121-1.252,0.296-1.797c0.208-0.646,0.288-1.029,0.31-1.812
		c0.043-1.433-0.027-2.911-0.027-4.354"/>
	<path fill="none" stroke="#FFFFFF" stroke-width="0.5" stroke-miterlimit="10" d="M30.432,28.077
		c0.005-0.8,0.086-1.608,0.163-2.558c0.065-0.75,0.364-1.486,0.552-2.199c0.205-0.77-0.027-0.969,0.016-1.926
		c0.073-1.756-0.084-1.345-0.261-2.992"/>
	<path fill="none" stroke="#FFFFFF" stroke-width="0.5" stroke-miterlimit="10" d="M28.329,28.077
		c-0.034-0.675-0.043-1.358-0.009-2.054c0.024-0.51,0.092-1.045,0.223-1.498c0.156-0.543,0.221-0.863,0.234-1.512
		c0.032-1.201-0.022-2.437-0.022-3.641"/>
	<path fill="none" stroke="#FFFFFF" stroke-width="0.5" stroke-miterlimit="10" d="M70.335,28.077
		c0.028-0.246,0.058-0.488,0.082-0.763c0.289-3.127-1.362-4.924-1.362-4.924c-0.828-1.435-3.882-3.557-4.85-4.417
		c-0.97-0.864-1.905-1.185-2.91-1.475c-1.007-0.288-2.479-0.108-2.804-0.25c-0.323-0.146-0.142-0.792-0.105-1.581
		c0.035-0.793,1.002-1.584,1.255-2.05c0.251-0.468,0.215-0.824,0.143-1.003c-0.07-0.18-0.681-1.043-1.15-1.834
		c-0.466-0.789-0.825-2.012-0.825-2.012"/>
	<path fill="none" stroke="#FFFFFF" stroke-width="0.5" stroke-miterlimit="10" d="M56.389,28.077
		c-0.032-0.479-0.052-0.972-0.015-1.446c0.04-0.582,0.243-1.094-0.01-1.645c-0.272-0.584-0.28-1.025-0.28-1.697"/>
</g>
<line fill="none" x1="70.335" y1="28.077" x2="56.389" y2="28.077"/>
<line fill="none" x1="50.334" y1="28.077" x2="47.586" y2="28.077"/>
<line fill="none" x1="56.389" y1="28.077" x2="50.334" y2="28.077"/>
<line fill="none" x1="24.944" y1="28.077" x2="23.615" y2="28.077"/>
<line fill="none" x1="35.158" y1="28.077" x2="32.759" y2="28.077"/>
<line fill="none" x1="28.329" y1="28.077" x2="24.944" y2="28.077"/>
<line fill="none" x1="47.586" y1="28.077" x2="44.936" y2="28.077"/>
<line fill="none" x1="32.759" y1="28.077" x2="30.432" y2="28.077"/>
<line fill="none" x1="30.432" y1="28.077" x2="28.329" y2="28.077"/>
<line fill="none" x1="42.454" y1="28.077" x2="39.903" y2="28.077"/>
<line fill="none" x1="35.158" y1="28.077" x2="37.438" y2="28.077"/>
<line fill="none" x1="44.936" y1="28.077" x2="42.454" y2="28.077"/>
<line fill="none" x1="39.903" y1="28.077" x2="37.438" y2="28.077"/>
<line fill="none" x1="23.615" y1="28.077" x2="22.154" y2="28.077"/>
<line fill="none" stroke="#EA5F41" x1="127.751" y1="28.077" x2="2.084" y2="28.077"/>
</svg>
