<?xml version="1.0" encoding="utf-8"?>
<!-- Generator: Adobe Illustrator 16.0.3, SVG Export Plug-In . SVG Version: 6.00 Build 0)  -->
<!DOCTYPE svg PUBLIC "-//W3C//DTD SVG 1.1//EN" "http://www.w3.org/Graphics/SVG/1.1/DTD/svg11.dtd">
<svg version="1.1" id="Layer_1" xmlns="http://www.w3.org/2000/svg" xmlns:xlink="http://www.w3.org/1999/xlink" x="0px" y="0px"
	 width="137.25px" height="48px" viewBox="0 0 137.25 48" enable-background="new 0 0 137.25 48" xml:space="preserve">
<g>
	<path fill="#F1F1F1" d="M77.964,25.507l1.711-2.517c0.9,0.9,2.291,1.652,4.021,1.652c1.092,0,1.77-0.375,1.77-0.999
		c0-1.653-7.081-0.281-7.081-5.107c0-2.104,1.769-3.983,4.979-3.983c2.011,0,3.758,0.602,5.089,1.747l-1.765,2.423
		c-1.056-0.882-2.422-1.314-3.664-1.314c-0.938,0-1.354,0.319-1.354,0.864c0,1.54,7.082,0.375,7.082,5.035
		c0,2.516-1.856,4.188-5.224,4.188C80.988,27.497,79.225,26.689,77.964,25.507z"/>
	<path fill="#F1F1F1" d="M98.572,27.271l-0.62-1.808h-4.94l-0.621,1.808h-3.664l4.719-12.529h4.074l4.715,12.529H98.572z
		 M95.493,17.937l-1.597,4.715h3.174L95.493,17.937z"/>
	<path fill="#F1F1F1" d="M110.145,27.271l-2.104-4.208h-1.65v4.208h-3.229V14.743h6.271c2.777,0,4.355,1.841,4.355,4.17
		c0,2.179-1.313,3.343-2.498,3.756l2.552,4.603H110.145L110.145,27.271z M110.502,18.895c0-0.864-0.695-1.333-1.561-1.333h-2.553
		v2.686h2.553C109.807,20.247,110.502,19.777,110.502,18.895z"/>
	<path fill="#F1F1F1" d="M118.77,27.271l-4.715-12.529h3.661l3.101,9.035l3.08-9.035h3.662l-4.715,12.529H118.77z"/>
</g>
<g>
	<path fill="#F1F1F1" d="M57.382,31.668c0.001,0.012,0,0.021,0.001,0.032h1.179l0.007-0.065l-0.334-4.029
		c-0.138,0.281-0.301,0.629-0.479,1.021c-0.056,0.169-0.113,0.354-0.172,0.563C57.412,29.818,57.344,30.67,57.382,31.668z"/>
	<path fill="#F1F1F1" d="M60.194,22.521c-0.111,0.898-0.06,1.376,0.002,1.619l0.029,0.113c0.138,0.537,0.268,1.043,0.295,1.651
		c0.003,0.063,0.001,0.132,0.001,0.197c0.497-0.14,1.371-0.216,1.409-0.218l0.817,0.091l0.441,0.217
		c0.035-0.037,0.072-0.071,0.114-0.104c0.363-0.271,1.551-0.278,1.563-0.278c0.146,0,0.268,0.01,0.345,0.022l0.197,0.033
		c0.22,0.032,0.469,0.069,0.766,0.219c0.026,0.015,0.048,0.021,0.065,0.026c0.166-0.209,0.464-0.444,0.872-0.444
		c0.711,0,1.054,0.004,1.199,0.03c0.16,0.029,0.318,0.14,0.499,0.283c0.168-0.111,0.392-0.232,0.726-0.308
		c0.146-0.03,0.315-0.049,0.487-0.049c0.584,0,2.022,0.205,2.771,2.108c0.578,1.481,0.836,2.86,0.774,3.971h0.313
		c0.018-0.139,0.031-0.271,0.045-0.426c0.197-2.144-0.568-3.627-0.998-4.271h-0.029l-0.107-0.189c0,0-0.012-0.021-0.025-0.043
		c-0.059-0.076-0.102-0.129-0.104-0.133c-0.625-1.064-2.475-2.521-3.7-3.481c-0.467-0.366-0.866-0.681-1.122-0.907
		c-0.88-0.783-1.725-1.089-2.647-1.359c-0.011,0-0.016,0.004-0.026,0.004c-0.154,0-0.333-0.047-0.527-0.131
		c-0.454-0.067-0.961-0.072-1.389-0.078c-0.143-0.001-0.266-0.003-0.377-0.006c-0.151,0.027-0.395,0.031-0.61-0.08
		c-0.012-0.004-0.027-0.007-0.039-0.012c-0.016-0.008-0.021-0.021-0.036-0.029c-0.023-0.018-0.052-0.021-0.074-0.041
		c-0.011-0.012-0.019-0.031-0.029-0.045c-0.314-0.265-0.287-0.748-0.235-1.271c0.001-0.01,0.001-0.021,0.002-0.031
		c0.004-0.11,0.013-0.213,0.025-0.31c0.006-0.072,0.014-0.139,0.018-0.216c0.029-0.665,0.531-1.259,0.934-1.736
		c0.156-0.185,0.303-0.358,0.365-0.474c0.223-0.414,0.136-0.66,0.125-0.686c-0.017-0.039-0.083-0.146-0.166-0.276
		c-0.257,0-0.482-0.083-0.664-0.163c-0.082-0.036-0.162-0.073-0.244-0.096c-0.141-0.035-0.289-0.045-0.436-0.057
		c-0.142-0.012-0.284-0.023-0.425-0.049C60.786,15.006,60.681,15,60.5,15.402c-0.269,0.597-0.211,1.567-0.16,2.425
		c0.02,0.337,0.039,0.659,0.039,0.945c0,0.318,0.009,0.631,0.017,0.943c0.009,0.318,0.018,0.636,0.018,0.959
		c0,0.459-0.067,0.867-0.132,1.262C60.25,22.131,60.218,22.322,60.194,22.521z"/>
	<path fill="#F1F1F1" d="M60.586,28.828c0.011,0.023,0.013,0.046,0.023,0.068c0.216-0.088,0.426-0.109,0.641-0.121
		c0.097-0.006,0.205-0.012,0.327-0.025c0.411-0.044,0.83-0.232,0.938-0.42l0.652,0.371c-0.284,0.498-0.989,0.738-1.507,0.794
		c-0.134,0.016-0.256,0.022-0.366,0.028c-0.279,0.017-0.401,0.031-0.554,0.16c-0.007,0.188-0.029,0.367-0.055,0.539
		c-0.021,0.142-0.043,0.283-0.054,0.434c-0.027,0.354-0.018,0.707-0.001,1.044h12.21c0.055-0.996-0.209-2.317-0.746-3.69
		c-0.578-1.475-1.641-1.633-2.07-1.633c-0.146,0-0.26,0.018-0.328,0.032c-0.211,0.046-0.334,0.112-0.432,0.178
		c0.082,0.386,0.16,0.796,0.166,1.202l-0.75,0.01c-0.005-0.354-0.078-0.734-0.157-1.091l-0.095-0.067
		c-0.067-0.057-0.225-0.186-0.284-0.211c-0.087-0.012-0.703-0.012-1.033-0.012c-0.193,0-0.313,0.203-0.314,0.205l-0.072,0.096
		c-0.003,0.004-0.016,0.01-0.021,0.012c0.019,0.113,0.034,0.229,0.057,0.34c0.06,0.291,0.12,0.594,0.12,0.938h-0.75
		c0-0.271-0.051-0.522-0.104-0.79c-0.028-0.139-0.048-0.283-0.07-0.426c-0.039-0.014-0.076-0.016-0.116-0.035
		c-0.193-0.097-0.348-0.119-0.543-0.148l-0.225-0.036c-0.045-0.009-0.118-0.013-0.206-0.013c-0.454,0-1.011,0.08-1.13,0.143
		c-0.031,0.025-0.106,0.182-0.134,0.238c-0.009,0.02-0.021,0.041-0.031,0.063c-0.006,0.545-0.053,1.006-0.15,1.387l-0.727-0.188
		c0.082-0.318,0.121-0.717,0.127-1.191l-0.014-0.057c-0.006-0.037-0.02-0.084-0.036-0.129L62.48,26.68l-0.55-0.047
		c-0.181,0.021-0.891,0.098-1.237,0.201c-0.17,0.049-0.261,0.219-0.314,0.32l-0.072,0.135h0.034
		C60.341,27.955,60.352,28.326,60.586,28.828z"/>
	<path fill="#F1F1F1" d="M64.092,17.755c-0.457,0-0.933,0.259-1.075,0.343c-0.083,0.102-0.313,0.406-0.381,0.752
		c-0.011,0.053-0.015,0.113-0.021,0.172c-0.005,0.056-0.008,0.114-0.013,0.168c-0.01,0.277,0.018,0.569,0.051,0.738
		c0.053,0,0.099-0.002,0.135-0.004c0.153-0.088,0.357-0.1,0.504-0.102c-0.118-0.063-0.198-0.188-0.198-0.33
		c0-0.207,0.167-0.375,0.375-0.375c0.208,0,0.375,0.168,0.375,0.375c0,0.15-0.088,0.279-0.215,0.34
		c0.387,0.023,0.874,0.094,1.179,0.204c0.096,0.016,0.186,0.039,0.277,0.06c0.375-0.412,0.252-1.179-0.325-2.005
		C64.6,17.861,64.387,17.755,64.092,17.755z"/>
	<path fill="#F1F1F1" d="M39.702,27.418c-0.021,0.105-0.041,0.207-0.067,0.323c-0.111,0.498-0.184,1.133-0.217,1.886
		c-0.024,0.675-0.018,1.376-0.002,2.078h1.532c-0.009-0.721-0.011-1.443,0.013-2.146c0.028-0.879,0.101-1.637,0.216-2.252
		c0.006-0.033,0.01-0.061,0.016-0.094c-0.101,0.004-0.197,0.012-0.298,0.014C40.418,27.236,39.942,27.254,39.702,27.418z"/>
	<path fill="#F1F1F1" d="M54.629,29.602c-0.058,0.707-0.067,1.412-0.044,2.104h2.053c-0.078-1.017-0.078-2.233,0.265-3.015
		c0.055-0.125,0.108-0.239,0.161-0.354c0.264-0.772,0.511-1.174,0.702-1.478l0.024-0.039c0.05-0.1,0.095-0.187,0.13-0.254
		c-0.254,0.033-0.52,0.052-0.781,0.062c-0.962,0.035-1.567,0.101-1.846,0.685l-0.037-0.019c-0.038,0.082-0.069,0.158-0.112,0.246
		C54.872,28.098,54.694,28.811,54.629,29.602z"/>
	<path fill="#F1F1F1" d="M41.899,27.539c-0.098,0.557-0.164,1.258-0.188,2.043c-0.023,0.695-0.022,1.41-0.013,2.123h1.707
		c-0.019-0.678-0.011-1.361,0.038-2.043c0.044-0.596,0.165-1.463,0.492-2.225c0.05-0.119,0.085-0.227,0.117-0.33
		c-0.254,0.021-0.497,0.027-0.718,0.027C42.735,27.131,42.324,27.143,41.899,27.539z"/>
	<path fill="#F1F1F1" d="M59.641,27.168c-0.032-0.043-0.241-0.248-0.379-0.271l-0.249-0.062l-0.078,0.01l0.381,4.798L59.311,31.7
		h0.567c-0.017-0.353-0.025-0.722,0.004-1.099c0.012-0.166,0.036-0.33,0.06-0.49c0.056-0.375,0.101-0.67-0.037-0.969
		c-0.314-0.676-0.314-1.194-0.314-1.854h0.095L59.641,27.168z"/>
	<path fill="#F1F1F1" d="M23.654,31.029c-0.202,0.113-0.404,0.129-0.593,0.129l-0.149-0.001c-0.001,0-0.002,0-0.003,0
		c0.04,0.024,0.078,0.049,0.112,0.069c0.323,0.197,0.527,0.328,0.634,0.465c0.002,0.002,0.004,0.004,0.006,0.007h0.569
		c-0.055-0.144-0.084-0.317-0.068-0.539c0.048-0.63,0.649-1.144,1.202-1.277l0.177,0.729c-0.281,0.068-0.61,0.341-0.63,0.604
		c-0.019,0.271,0.011,0.282,0.38,0.411c0.062,0.021,0.128,0.048,0.193,0.072h0.177c0.001-0.038-0.003-0.071-0.001-0.109
		c0.007-0.161,0.015-0.327-0.007-0.437l-0.035-0.159c-0.086-0.384-0.217-0.964,0.217-1.375c0.308-0.292,0.973-0.493,1.048-0.515
		l0.168,0.567c0.017-0.146,0.05-0.293,0.13-0.428c0.266-0.455,0.901-0.78,1.414-0.724l-0.017,0.146
		c0.08-0.282,0.182-0.371,0.487-0.512c0.26-0.121,0.498-0.192,0.759-0.268l0.202,0.723c-0.217,0.063-0.423,0.119-0.646,0.226
		c-0.034,0.017-0.061,0.026-0.084,0.038L29.263,29c-0.112,0.393-0.157,0.82-0.125,1.21c0.037,0.435,0.054,0.915,0.056,1.488h0.652
		c0.01-0.331,0.025-0.63,0.037-0.804c0.021-0.322,0.229-2.254,0.398-2.588c0.038-0.076,0.074-0.168,0.107-0.252
		c0.003-0.193-0.018-0.371-0.049-0.552c-0.023-0.128-0.033-0.257-0.044-0.386l-0.049-0.313l-0.004-0.594l-0.032-0.766
		c-0.037-0.232-0.05-0.438-0.026-0.631l-0.015-0.364l-0.164-0.104l0.019-0.047c-0.071-0.026-0.174-0.059-0.322-0.094
		c-0.179-0.043-0.352-0.074-0.534-0.107c-0.598-0.111-1.275-0.236-2.501-0.737c-1.329-0.542-2.578-0.936-3.817-1.202
		c-1.439-0.309-2.718-0.441-3.927-0.387l-0.404,0.02c-1.314,0.062-2.45,0.115-3.926,0.405c-1.828,0.355-3.09,0.712-3.86,1.083
		c-0.528,0.254-0.844,0.447-1.018,0.57c0.241-0.046,0.565-0.118,0.882-0.188c0.272-0.061,0.566-0.126,0.866-0.188
		c1.866-0.385,3.683-0.493,5.5-0.33c0.507,0.045,0.972,0.076,1.404,0.105c1.608,0.107,2.878,0.191,4.331,0.908
		c1.874,0.915,2.799,1.415,3.175,2.038c0.088,0.146,0.16,0.259,0.217,0.347c0.169,0.263,0.281,0.437,0.226,0.711
		c-0.089,0.427-0.414,0.489-0.599,0.489c-0.178,0-0.419-0.053-0.782-0.167c-0.773-0.244-1.389-0.39-1.758-0.414
		c0.183,0.082,0.37,0.17,0.543,0.266c0.767,0.429,1.442,0.858,1.299,1.429c-0.07,0.278-0.183,0.729-0.707,0.729
		c-0.059,0-0.125-0.006-0.2-0.021c-0.052-0.01-0.151-0.033-0.288-0.067c-0.705-0.179-2.578-0.646-4.644-0.646l-0.337,0.004
		c-1.362,0.037-2.651,0.123-3.655,0.213c0.192-0.006,0.356-0.006,0.479,0.007c0.204,0.02,0.533,0.021,0.929,0.021l1.067-0.003
		c0.898,0,1.905,0.018,2.564,0.131l0.546,0.096c1.228,0.214,2,0.354,2.369,0.557l0.159,0.085c0.332,0.173,0.617,0.322,0.624,0.638
		C23.928,30.695,23.896,30.891,23.654,31.029z"/>
	<path fill="#F1F1F1" d="M27.202,30.924c-0.009-0.115-0.039-0.244-0.069-0.379c-0.047-0.217-0.095-0.46-0.096-0.703
		c-0.287,0.092-0.593,0.232-0.687,0.321c-0.116,0.108-0.074,0.345-0.001,0.665l0.039,0.18c0.039,0.197,0.029,0.409,0.02,0.615
		c-0.001,0.025,0.001,0.049,0,0.075h0.759C27.199,31.439,27.224,31.186,27.202,30.924z"/>
	<path fill="#F1F1F1" d="M28.444,31.698c-0.001-0.552-0.018-1.011-0.053-1.427c-0.026-0.322,0.004-0.662,0.06-0.998
		c-0.225,0.004-0.517,0.17-0.624,0.354c-0.092,0.154-0.02,0.488,0.04,0.757c0.037,0.171,0.072,0.335,0.083,0.479
		c0.025,0.296,0.003,0.568-0.028,0.836L28.444,31.698L28.444,31.698z"/>
	<path fill="#F1F1F1" d="M51.679,17.153c-0.738-1.827-1.521-3.326-1.528-3.341c-0.094-0.123-0.212-0.276-0.313-0.402
		c0.059,0.254,0.131,0.574,0.192,0.959c0.145,0.947,0.22,2.184,0.22,2.502c0,0.313-0.039,1.041-0.112,1.592
		c-0.033,0.26-0.085,0.726-0.125,1.165c0.002,0.129,0.003,0.248,0.003,0.351c0,0.332-0.016,0.539-0.039,0.674
		c0.005,0.409,0.008,0.817,0.016,1.229c0.021,1.081,0.042,2.199,0.011,3.284c-0.014,0.441-0.048,0.779-0.1,1.095
		c0.462-0.159,0.981-0.182,1.442-0.198c0.296-0.013,0.574-0.022,0.816-0.063c0.052-0.251,0.088-0.519,0.103-0.856
		c0.044-1.062,0.013-2.166-0.017-3.231c-0.012-0.436-0.017-0.868-0.024-1.302l-0.047-0.049l0.007-0.243
		C52.233,18.86,51.937,17.793,51.679,17.153z"/>
	<path fill="#F1F1F1" d="M37.478,27.641c-0.045,0.188-0.097,0.373-0.166,0.586c-0.146,0.455-0.24,1.027-0.279,1.703
		c-0.033,0.604-0.029,1.193-0.015,1.775h1.647c-0.016-0.711-0.022-1.422,0.003-2.107c0.035-0.801,0.113-1.479,0.233-2.02
		c0.018-0.078,0.03-0.145,0.045-0.217c-0.064,0.002-0.121,0.01-0.187,0.012C38.25,27.386,37.681,27.404,37.478,27.641z"/>
	<path fill="#F1F1F1" d="M44.19,29.717c-0.048,0.663-0.055,1.329-0.037,1.988h1.811c-0.014-0.721-0.016-1.445,0.019-2.153
		c0.048-0.891,0.165-1.657,0.349-2.282c0.042-0.143,0.073-0.266,0.106-0.391c-0.068,0.004-0.137,0.01-0.205,0.012
		c-0.771,0.033-1.255,0.082-1.481,0.625l-0.045-0.019c-0.028,0.078-0.048,0.151-0.083,0.235
		C44.397,28.261,44.247,28.947,44.19,29.717z"/>
	<path fill="#F1F1F1" d="M49.22,29.592c-0.042,0.713-0.048,1.42-0.032,2.113h1.898c-0.023-0.719-0.013-1.443,0.047-2.166
		c0.072-0.882,0.274-1.688,0.586-2.328c0.076-0.158,0.137-0.295,0.195-0.432c-0.18,0.015-0.361,0.021-0.541,0.031
		c-0.885,0.031-1.453,0.106-1.756,0.566c-0.013,0.041-0.022,0.074-0.037,0.116C49.39,28.061,49.265,28.785,49.22,29.592z"/>
	<path fill="#F1F1F1" d="M46.733,29.59c-0.035,0.695-0.033,1.406-0.019,2.115h1.724c-0.016-0.709-0.009-1.43,0.032-2.156
		c0.049-0.873,0.187-1.666,0.399-2.294c0.008-0.024,0.013-0.044,0.021-0.067l-0.038-0.019c0.026-0.054,0.06-0.095,0.089-0.144
		c0.007-0.023,0.014-0.047,0.021-0.068c-0.094,0.004-0.179,0.016-0.275,0.018c-0.655,0.021-1.333,0.039-1.566,0.385l-0.031-0.021
		c-0.014,0.05-0.023,0.093-0.039,0.144C46.887,28.041,46.777,28.771,46.733,29.59z"/>
	<path fill="#F1F1F1" d="M51.881,29.602c-0.059,0.701-0.068,1.406-0.044,2.104h1.998c-0.022-0.713-0.013-1.438,0.047-2.166
		c0.072-0.883,0.275-1.688,0.587-2.328c0.108-0.223,0.192-0.416,0.264-0.603c-0.114,0.008-0.229,0.014-0.342,0.019
		c-0.962,0.035-1.566,0.101-1.844,0.685l-0.041-0.021c-0.038,0.082-0.069,0.158-0.112,0.247
		C52.123,28.098,51.946,28.811,51.881,29.602z"/>
	<path fill="#F1F1F1" d="M74.842,28.563c0,0-0.078-0.674-0.156-1.166c-0.033-0.207-0.418-0.361-0.555-0.396l-0.32,0.003
		c0.473,0.844,1.049,2.329,0.861,4.35c-0.01,0.127-0.023,0.236-0.037,0.354h0.295c-0.004-0.161-0.006-0.3-0.006-0.41
		C74.924,30.739,74.844,28.607,74.842,28.563z"/>
	<path fill="#F1F1F1" d="M39.863,16.221c-0.238-0.34-1.055-1.336-1.286-1.566c-0.095-0.095-0.246-0.246-0.364-0.343
		c0.036,0.1,0.076,0.208,0.114,0.312c0.067,0.181,0.142,0.386,0.221,0.612l0.105,0.3c0.236,0.672,0.504,1.433,0.696,2.291
		c0.062,0.277,0.118,0.505,0.168,0.707c0.126,0.513,0.218,0.883,0.272,1.5c0.038,0.432,0.056,0.728,0.064,0.917h0.004
		c0,0.042,0.001,0.085,0.001,0.128c0.003,0.083,0.004,0.138,0.004,0.138H39.86c0.001,0.521,0.006,1.044,0.013,1.57
		c0.012,0.974,0.024,1.947,0.007,2.908c-0.007,0.347-0.024,0.615-0.049,0.869c0.327-0.069,0.69-0.08,1.049-0.086
		c0.147-0.004,0.289-0.015,0.432-0.021c0.047-0.376,0.072-0.757,0.083-1.313c0.014-0.979-0.004-1.786-0.022-2.614
		c-0.015-0.646-0.029-1.307-0.029-2.07c-0.039-0.216-0.067-0.492-0.098-0.788c-0.138-0.902-0.215-1.077-0.224-1.095
		c-0.055-0.105-0.164-0.34-0.296-0.623C40.462,17.391,40.021,16.445,39.863,16.221z"/>
	<path fill="#F1F1F1" d="M37.72,17.564c-0.458-0.667-0.917-1.336-1.078-1.541c-0.244-0.319-0.832-0.898-1.077-1.084
		c-0.097-0.072-0.172-0.121-0.231-0.156c0.01,0.037,0.02,0.072,0.029,0.104l0.034,0.122c0.037,0.14,0.199,0.476,0.356,0.801
		c0.236,0.489,0.53,1.098,0.681,1.594c0.289,0.949,0.521,1.794,0.621,2.26c0.046,0.221,0.108,0.402,0.167,0.578
		c0.075,0.225,0.152,0.455,0.196,0.736c0.056,0.372,0.134,0.705,0.159,0.815c0,0.004,0.001,0.008,0.002,0.011l-0.354,0.131
		l-0.039,0.008h0.427c0,0.549,0.01,1.104,0.021,1.658c0.016,0.891,0.033,1.813,0.006,2.708c-0.004,0.162-0.014,0.299-0.024,0.435
		c0.354-0.093,0.751-0.109,1.126-0.119c0.117-0.003,0.222-0.015,0.333-0.021c0.031-0.268,0.049-0.549,0.056-0.924
		c0.018-0.951,0.005-1.92-0.006-2.885c-0.007-0.53-0.012-1.06-0.013-1.585c-0.054-0.561-0.27-2.024-0.685-2.621L37.72,17.564z"/>
	<path fill="#F1F1F1" d="M44.017,19.896c-0.018-0.088-0.038-0.167-0.063-0.229c-0.178-0.43-0.758-1.986-0.758-1.986
		c-0.004-0.01-0.417-1.107-0.777-1.598c-0.148-0.201-0.32-0.451-0.495-0.706c-0.289-0.419-0.587-0.853-0.775-1.063
		c-0.115-0.126-0.244-0.248-0.362-0.349c0.042,0.142,0.099,0.302,0.154,0.459c0.103,0.288,0.208,0.585,0.248,0.841
		c0.037,0.246,0.164,0.612,0.287,0.967c0.092,0.265,0.184,0.527,0.244,0.753c0.098,0.368,0.119,0.783,0.139,1.184
		c0.012,0.231,0.023,0.458,0.051,0.659c0.026,0.201,0.046,0.406,0.066,0.608l0.011,0.108l0,0c0.106,0.682,0.135,0.914,0.108,1.036
		c0.001,0.704,0.014,1.329,0.027,1.934c0.019,0.839,0.037,1.653,0.022,2.646c-0.01,0.588-0.04,0.998-0.088,1.393
		c0.426-0.169,0.854-0.17,1.28-0.166c0.268,0,0.549-0.008,0.844-0.049c0.008-0.145,0.012-0.297,0.016-0.471l0.011-0.438
		c0.056-1.518-0.01-2.917-0.114-4.648c-0.003-0.014-0.004-0.022-0.008-0.035c-0.035-0.124-0.056-0.27-0.067-0.424
		c0-0.004,0-0.009,0-0.014C44.009,20.175,44.007,20.035,44.017,19.896z"/>
	<path fill="#F1F1F1" d="M34.59,17.584c-0.499-0.583-0.929-1.086-1.183-1.277c-0.171-0.127-0.361-0.305-0.544-0.477
		c-0.117-0.11-0.277-0.261-0.393-0.352c0.079,0.131,0.199,0.323,0.303,0.49c0.331,0.53,0.706,1.131,0.823,1.506
		c0.061,0.199,0.208,0.525,0.364,0.869c0.277,0.611,0.59,1.305,0.687,1.838c0.096,0.527,0.272,1.227,0.388,1.682l0,0
		c0.055,0.203,0.088,0.347,0.104,0.418h0.001l0,0v0.002l0,0l0.001,0.003l0.001-0.001l-0.001,0.001l0.005,0.021l0.001-0.001
		l0.043,0.184l-0.015,0.02c0.057,0.486,0.11,0.781,0.154,1.01c0.09,0.473,0.139,0.734,0.091,1.891
		c-0.017,0.372,0.012,0.621,0.036,0.842c0.026,0.229,0.047,0.453,0.015,0.737c0.337-0.105,0.692-0.129,0.999-0.143
		c0.137-0.008,0.266-0.017,0.389-0.027c0.015-0.157,0.025-0.329,0.031-0.532c0.026-0.877,0.01-1.789-0.006-2.672
		c-0.01-0.535-0.019-1.068-0.02-1.599l-0.005,0.001c-0.072-0.294-0.649-2.594-1.423-3.459C35.135,18.223,34.851,17.891,34.59,17.584
		z"/>
	<path fill="#F1F1F1" d="M44.852,14.888c-0.359-0.541-0.617-0.876-0.799-1.085c0.096,0.276,0.195,0.61,0.258,0.955l0.06,0.322
		c0.16,0.854,0.379,2.025,0.379,2.689c0,0.278,0.017,0.58,0.032,0.863c0.029,0.543,0.045,0.889-0.006,1.121l-0.001,0.105
		c0.002,0.01,0.003,0.021,0.005,0.031c0.084,0.484,0.112,1.066,0.115,1.135l-0.035,0.002c0.094,1.618,0.151,2.969,0.097,4.43
		l-0.01,0.425c-0.003,0.165-0.007,0.319-0.014,0.469c0.405-0.166,0.863-0.19,1.27-0.209c0.136-0.007,0.267-0.013,0.391-0.021
		c0.04-0.282,0.065-0.581,0.075-0.975c0.027-1.067,0.008-2.179-0.009-3.25c-0.007-0.42-0.01-0.838-0.014-1.257l-0.056-0.009v-0.002
		h-0.001c0,0,0.013-0.297,0.05-0.664c0-0.048-0.001-0.097-0.001-0.145h0.016c0-0.006,0.001-0.01,0.001-0.014
		c-0.013-0.435-0.103-0.969-0.267-1.539C45.924,16.669,45.474,15.818,44.852,14.888z"/>
	<path fill="#F1F1F1" d="M28.974,18.702c-0.098-0.081-0.196-0.166-0.296-0.255c-0.294-0.26-0.598-0.527-1.075-0.777
		c-0.086-0.045-0.246-0.129-0.413-0.213c0.015,0.016,0.03,0.029,0.046,0.045c0.38,0.37,1.016,0.988,1.378,1.715
		c0.144,0.287,0.291,0.567,0.435,0.842c0.33,0.629,0.642,1.223,0.873,1.813c0.271,0.693,0.569,1.413,0.655,1.621l0.315,0.348
		l0.43,0.279l-0.346,0.623c-0.031,0.055-0.045,0.112-0.054,0.176l0.011,0.308c0.013,0.097,0.031,0.207,0.057,0.353l0.028,0.157
		c0.081,0.466,0.054,0.679,0.028,0.886c-0.011,0.088-0.023,0.181-0.023,0.312c0,0.01,0.003,0.018,0.003,0.024l0.122,0.711
		c0.291-0.103,0.615-0.123,0.905-0.133c0.07-0.002,0.132-0.011,0.2-0.015c0.016-0.149,0.027-0.313,0.031-0.515
		c0.02-0.735,0.007-1.481-0.006-2.229c-0.008-0.449-0.015-0.898-0.016-1.344c-0.229-0.408-0.633-1.113-0.991-1.648
		c-0.247-0.369-0.418-0.672-0.574-0.948c-0.158-0.279-0.299-0.529-0.495-0.798C29.843,19.546,29.36,19.021,28.974,18.702z"/>
	<path fill="#F1F1F1" d="M30.713,17.412l-0.091-0.077c-0.267-0.229-0.814-0.618-1.065-0.74c0.072,0.096,0.155,0.196,0.241,0.301
		c0.261,0.318,0.586,0.714,0.856,1.192c0.139,0.247,0.292,0.5,0.444,0.754c0.359,0.599,0.731,1.217,0.946,1.774
		c0.093,0.243,0.197,0.497,0.299,0.746c0.219,0.536,0.427,1.043,0.506,1.387c0.057,0.25,0.111,0.385,0.147,0.454l-0.241,0.167h0.258
		c0,0.462,0.008,0.928,0.016,1.396c0.013,0.756,0.026,1.516,0.006,2.258c-0.003,0.146-0.01,0.271-0.018,0.393
		c0.369-0.096,0.785-0.111,1.177-0.122c0.162-0.004,0.31-0.017,0.46-0.022c0.004-0.016,0.009-0.028,0.013-0.043
		c0.102-0.381,0.079-0.584,0.044-0.891c-0.026-0.234-0.06-0.527-0.04-0.958c0.044-1.069,0.003-1.286-0.079-1.72
		c-0.047-0.25-0.106-0.57-0.169-1.123l-0.113-0.484c-0.173-0.634-0.57-1.813-1.266-2.511C32.044,18.54,31.077,17.721,30.713,17.412z
		"/>
	<path fill="#F1F1F1" d="M47.169,13.695c-0.083-0.084-0.208-0.187-0.309-0.257c0.023,0.076,0.064,0.19,0.113,0.326
		c0.241,0.681,0.644,1.822,0.616,2.582c-0.012,0.348-0.006,0.729,0,1.1c0.01,0.689,0.021,1.341-0.081,1.773
		c-0.047,0.201-0.081,0.434-0.106,0.652c0.002,0.153-0.002,0.283-0.011,0.396c0.003,0.537,0.009,1.074,0.018,1.615
		c0.018,1.08,0.036,2.197,0.009,3.281c-0.013,0.497-0.045,0.871-0.103,1.219c0.418-0.127,0.901-0.146,1.352-0.157
		c0.171-0.006,0.329-0.019,0.489-0.029c0.053-0.301,0.083-0.621,0.097-1.053c0.031-1.065,0.01-2.177-0.011-3.249
		c-0.007-0.363-0.009-0.723-0.014-1.084l-0.016-0.122c-0.005-0.042-0.019-0.154,0.007-0.565c0-0.102-0.004-0.204-0.004-0.305h0.026
		c0.006-0.077,0.013-0.156,0.021-0.248l0,0v-0.002c-0.018-0.738-0.131-2.213-0.694-3.318C47.773,14.688,47.302,13.828,47.169,13.695
		z"/>
	<path fill="#F1F1F1" d="M31.195,28.518l-0.085-0.049c-0.037,0.264-0.07,0.422-0.131,0.701c-0.042,0.191-0.097,0.448-0.178,0.854
		c-0.198,0.99-0.106,1.645-0.105,1.649v0.032h1.128c-0.021-0.596-0.024-1.162,0.002-1.699c0.02-0.417,0.077-1.029,0.237-1.584
		c0.015-0.053,0.024-0.093,0.038-0.141c-0.008,0-0.016,0.002-0.024,0.002C31.615,28.299,31.304,28.323,31.195,28.518z"/>
	<path fill="#F1F1F1" d="M70,21.051c-0.238-0.676-0.484-1.375-0.617-1.67c-0.25-0.549-1.092-1.902-1.646-2.586
		c-0.525-0.65-2.018-2.068-2.617-2.488c-0.363-0.253-1.138-0.713-1.82-1.118c-0.354-0.21-0.676-0.402-0.905-0.543
		c0.126,0.319,0.279,0.664,0.445,0.944c0.231,0.389,0.498,0.796,0.714,1.129c0.287,0.439,0.415,0.638,0.463,0.76
		c0.069,0.173,0.193,0.654-0.163,1.316c-0.045,0.082-0.105,0.168-0.172,0.256c0.134-0.027,0.271-0.046,0.411-0.046
		c0.538,0,0.981,0.227,1.282,0.655c0.699,1.002,0.861,1.963,0.472,2.654c0.827,0.269,1.648,0.629,2.49,1.379
		c0.248,0.219,0.636,0.523,1.087,0.878c0.551,0.433,1.184,0.932,1.783,1.446c-0.203-0.402-0.414-0.849-0.59-1.283
		C70.461,22.36,70.229,21.701,70,21.051z"/>
	<path fill="#F1F1F1" d="M32.876,28.293c-0.027,0.105-0.055,0.215-0.09,0.336c-0.111,0.385-0.183,0.872-0.209,1.412
		c-0.025,0.523-0.022,1.078-0.001,1.664h1.378c0.018-0.553,0.058-1.109,0.11-1.737l0.04-0.479c0.044-0.507,0.184-0.989,0.327-1.459
		c-0.075,0.003-0.143,0.01-0.219,0.012C33.71,28.055,33.104,28.076,32.876,28.293z"/>
	<path fill="#F1F1F1" d="M54.413,16.908c-0.819-1.92-1.383-3.008-1.521-3.167c-0.07-0.083-0.139-0.175-0.206-0.267
		c-0.008-0.011-0.016-0.022-0.025-0.034c0.004,0.09,0.013,0.202,0.027,0.341c0.042,0.404,0.101,0.854,0.158,1.297
		c0.092,0.707,0.179,1.375,0.199,1.848c0.039,0.76,0.002,1.887,0,1.934c-0.003,0.1-0.027,0.873-0.081,1.352
		c0.005,0.557,0.016,1.113,0.032,1.674c0.03,1.081,0.062,2.198,0.016,3.285c-0.015,0.356-0.053,0.644-0.104,0.91
		c0.466-0.162,0.989-0.187,1.454-0.203c0.205-0.008,0.396-0.021,0.579-0.037c0.034-0.207,0.059-0.43,0.07-0.7
		c0.045-1.063,0.015-2.175-0.016-3.246c-0.019-0.694-0.039-1.388-0.039-2.075h0.053C54.97,19.052,54.836,17.908,54.413,16.908z"/>
	<path fill="#F1F1F1" d="M35.169,28.177c-0.14,0.455-0.279,0.923-0.318,1.375l-0.04,0.479c-0.051,0.607-0.09,1.146-0.107,1.674
		h1.566c-0.014-0.596-0.019-1.199,0.015-1.816c0.042-0.74,0.148-1.377,0.314-1.893c0.048-0.15,0.089-0.284,0.124-0.413
		c-0.073,0.005-0.146,0.011-0.217,0.015C35.828,27.629,35.397,27.689,35.169,28.177z"/>
	<path fill="#F1F1F1" d="M56.574,14.325c-0.267-0.365-0.507-0.73-0.712-1.042c-0.099-0.15-0.21-0.32-0.307-0.458
		c0.025,0.215,0.058,0.472,0.087,0.701c0.097,0.762,0.207,1.625,0.207,2.124c0,0.287,0.004,0.666,0.008,1.061
		c0.011,1.061,0.016,1.773-0.01,2.002c-0.03,0.286-0.063,1.449-0.068,1.645h0.001l-0.001,0.22h-0.001l0,0l-0.056-0.001
		c0.007,0.432,0.012,0.863,0.024,1.297c0.03,1.084,0.062,2.206,0.015,3.297c-0.015,0.354-0.053,0.642-0.104,0.91
		c0.466-0.162,0.988-0.187,1.453-0.203c0.309-0.012,0.6-0.022,0.85-0.067l0.093,0.508l0.003-0.004
		c0.018-0.069,0.015-0.127,0.007-0.205c-0.005-0.053-0.027-0.139-0.053-0.248c-0.094-0.403-0.25-1.08-0.161-1.774
		c0.063-0.496,0.117-0.914,0.173-1.299l0.116-1.07l0.048-1.299c-0.01-0.035-0.01-0.074-0.023-0.108l-0.161-0.402l-0.128-0.725
		l-0.032-0.254c-0.027-0.181-0.051-0.364-0.068-0.547L57.69,17.71C57.558,17.024,57.092,15.035,56.574,14.325z"/>
	<path fill="#F1F1F1" d="M58.633,10.126c-0.62-0.335-1.833-0.918-3.146-1.465c-1.291-0.537-3.342-0.979-4.568-1.244
		c-0.96-0.208-2.07-0.238-2.646-0.238c-0.191,0-0.306,0.003-0.309,0.004c-0.302,0.011-1.073,0.054-1.558,0.128
		c0.154,0.033,0.607,0.111,1.084,0.193l0.229,0.039c0.385,0.066,0.67,0.11,0.904,0.146c0.351,0.053,0.592,0.09,0.873,0.157
		c0.462,0.105,1.369,0.38,1.369,0.38c0.141,0.051,2.975,1.093,3.392,1.287c0.426,0.2,1.766,1.031,2.814,1.692
		c1.188,0.749,1.418,1.908,1.517,2.402c0.113,0.579-0.009,1.708-0.023,1.835c0.005,0.002,0.058,1.015-0.054,1.893
		c-0.029,0.229-0.026,0.51-0.005,0.805l0.149,1.09c0.064,0.324,0.139,0.615,0.211,0.814c0.002,0.008,0.003,0.016,0.005,0.022
		l0.072,0.171l-0.004,0.107c0.124,0.568,0.055,1.199-0.057,1.807c-0.044,0.248-0.084,0.503-0.124,0.773l-0.141,1.299l0.002,0.666
		l0.202,0.77l0.051,0.441l0.232-0.004l0.309,0.066c0.122,0.02,0.243,0.078,0.36,0.15V26.3c0.001-0.123,0.003-0.245-0.001-0.364
		c-0.024-0.529-0.139-0.979-0.272-1.498l-0.029-0.115c-0.114-0.444-0.121-1.082-0.02-1.896c0.025-0.207,0.058-0.409,0.091-0.609
		c0.063-0.383,0.122-0.742,0.122-1.141c0-0.316-0.009-0.627-0.017-0.938c-0.009-0.319-0.018-0.639-0.018-0.964
		c0-0.273-0.019-0.58-0.038-0.9c-0.056-0.943-0.119-2.014,0.225-2.777c0.423-0.944,1.099-0.828,1.698-0.725
		c0.119,0.021,0.237,0.03,0.354,0.04c0.191,0.015,0.38,0.032,0.566,0.08c0.037,0.01,0.072,0.028,0.108,0.041
		c-0.118-0.185-0.237-0.375-0.348-0.563c-0.423-0.716-0.752-1.738-0.84-2.023c-0.266-0.188-0.532-0.382-0.802-0.587
		C60.004,10.944,59.27,10.471,58.633,10.126z"/>
</g>
<line fill="none" x1="74.335" y1="32.077" x2="60.389" y2="32.077"/>
<line fill="none" x1="54.334" y1="32.077" x2="51.586" y2="32.077"/>
<line fill="none" x1="60.389" y1="32.077" x2="54.334" y2="32.077"/>
<line fill="none" x1="28.944" y1="32.077" x2="27.615" y2="32.077"/>
<line fill="none" x1="39.158" y1="32.077" x2="36.759" y2="32.077"/>
<line fill="none" x1="32.329" y1="32.077" x2="28.944" y2="32.077"/>
<line fill="none" x1="51.586" y1="32.077" x2="48.936" y2="32.077"/>
<line fill="none" x1="36.759" y1="32.077" x2="34.432" y2="32.077"/>
<line fill="none" x1="34.432" y1="32.077" x2="32.329" y2="32.077"/>
<line fill="none" x1="46.454" y1="32.077" x2="43.903" y2="32.077"/>
<line fill="none" x1="39.158" y1="32.077" x2="41.438" y2="32.077"/>
<line fill="none" x1="48.936" y1="32.077" x2="46.454" y2="32.077"/>
<line fill="none" x1="43.903" y1="32.077" x2="41.438" y2="32.077"/>
<line fill="none" x1="27.615" y1="32.077" x2="26.154" y2="32.077"/>
<line fill="none" stroke="#FFFFFF" x1="131.751" y1="32.077" x2="6.084" y2="32.077"/>
<g>
	<path fill="#FFFFFF" d="M12.183,41.715c-0.371,0.133-1.103,0.352-1.968,0.352c-0.97,0-1.768-0.246-2.396-0.846
		c-0.551-0.533-0.894-1.389-0.894-2.387c0.009-1.91,1.321-3.309,3.47-3.309c0.742,0,1.321,0.162,1.597,0.295l-0.2,0.676
		c-0.342-0.152-0.77-0.275-1.417-0.275c-1.559,0-2.576,0.969-2.576,2.576c0,1.625,0.979,2.586,2.472,2.586
		c0.542,0,0.913-0.076,1.103-0.172v-1.91h-1.301v-0.666h2.11V41.715z"/>
	<path fill="#FFFFFF" d="M16.761,38.996H14.27v2.311h2.776V42h-3.603v-6.407h3.46v0.694H14.27v2.023h2.491V38.996z"/>
	<path fill="#FFFFFF" d="M23.593,38.73c0,2.205-1.34,3.373-2.976,3.373c-1.692,0-2.88-1.313-2.88-3.25
		c0-2.035,1.264-3.365,2.976-3.365C22.462,35.488,23.593,36.828,23.593,38.73z M18.621,38.834c0,1.369,0.742,2.596,2.044,2.596
		c1.312,0,2.054-1.207,2.054-2.662c0-1.271-0.666-2.604-2.044-2.604C19.306,36.163,18.621,37.428,18.621,38.834z"/>
	<path fill="#FFFFFF" d="M24.549,40.992c0.371,0.229,0.913,0.418,1.483,0.418c0.846,0,1.34-0.446,1.34-1.094
		c0-0.602-0.342-0.939-1.207-1.273c-1.046-0.37-1.692-0.912-1.692-1.814c0-0.998,0.827-1.736,2.072-1.736
		c0.656,0,1.131,0.148,1.417,0.313l-0.228,0.676c-0.209-0.111-0.637-0.306-1.217-0.306c-0.875,0-1.207,0.521-1.207,0.96
		c0,0.602,0.39,0.896,1.273,1.236c1.084,0.418,1.635,0.938,1.635,1.882c0,0.988-0.732,1.847-2.244,1.847
		c-0.618,0-1.292-0.184-1.635-0.408L24.549,40.992z"/>
	<path fill="#FFFFFF" d="M33.823,41.791c-0.304,0.152-0.913,0.305-1.692,0.305c-1.806,0-3.166-1.142-3.166-3.242
		c0-2.006,1.359-3.361,3.346-3.361c0.798,0,1.302,0.171,1.521,0.281l-0.2,0.679c-0.313-0.151-0.76-0.271-1.293-0.271
		c-1.502,0-2.5,0.961-2.5,2.646c0,1.566,0.903,2.572,2.462,2.572c0.504,0,1.018-0.104,1.35-0.266L33.823,41.791z"/>
	<path fill="#FFFFFF" d="M35.683,35.593V42h-0.827v-6.407H35.683z"/>
	<path fill="#FFFFFF" d="M40.444,38.996h-2.491v2.311h2.776V42h-3.603v-6.407h3.46v0.694h-2.633v2.023h2.491V38.996z"/>
	<path fill="#FFFFFF" d="M41.801,42v-6.407h0.903l2.053,3.241c0.476,0.752,0.846,1.426,1.15,2.082l0.019-0.01
		c-0.076-0.855-0.095-1.635-0.095-2.633V35.59h0.78V42h-0.836l-2.035-3.251c-0.447-0.713-0.875-1.444-1.198-2.14l-0.028,0.01
		c0.047,0.809,0.066,1.578,0.066,2.643V42H41.801z"/>
	<path fill="#FFFFFF" d="M52.529,41.791c-0.305,0.152-0.913,0.305-1.692,0.305c-1.806,0-3.166-1.142-3.166-3.242
		c0-2.006,1.359-3.361,3.346-3.361c0.798,0,1.303,0.171,1.521,0.281l-0.199,0.679c-0.313-0.151-0.76-0.271-1.293-0.271
		c-1.502,0-2.5,0.961-2.5,2.646c0,1.566,0.903,2.572,2.462,2.572c0.504,0,1.018-0.104,1.35-0.266L52.529,41.791z"/>
	<path fill="#FFFFFF" d="M56.879,38.996h-2.49v2.311h2.775V42h-3.603v-6.407h3.46v0.694h-2.633v2.023h2.49L56.879,38.996
		L56.879,38.996z"/>
	<path fill="#FFFFFF" d="M62.985,35.678c0.504-0.074,1.103-0.133,1.759-0.133c1.188,0,2.034,0.275,2.595,0.799
		c0.57,0.523,0.903,1.264,0.903,2.301c0,1.045-0.323,1.9-0.922,2.49c-0.6,0.6-1.588,0.922-2.833,0.922
		c-0.59,0-1.084-0.024-1.502-0.076V35.678z M63.813,41.344c0.209,0.039,0.513,0.049,0.836,0.049c1.769,0,2.729-0.99,2.729-2.72
		c0.01-1.512-0.846-2.472-2.595-2.472c-0.428,0-0.751,0.038-0.97,0.086V41.344z"/>
	<path fill="#FFFFFF" d="M70.216,39.984L69.55,42h-0.855l2.178-6.407h0.998L74.057,42h-0.885l-0.686-2.016H70.216z M72.316,39.338
		l-0.627-1.844c-0.146-0.418-0.238-0.799-0.334-1.17h-0.021c-0.098,0.381-0.197,0.771-0.32,1.16l-0.627,1.854H72.316z"/>
	<path fill="#FFFFFF" d="M75.479,36.297h-1.949v-0.704h4.744v0.704h-1.959V42h-0.836V36.297z"/>
	<path fill="#FFFFFF" d="M79.307,39.984L78.641,42h-0.854l2.178-6.407h0.998L83.146,42h-0.885l-0.688-2.016H79.307z M81.407,39.338
		l-0.628-1.844c-0.143-0.418-0.237-0.799-0.332-1.17h-0.02c-0.099,0.381-0.199,0.771-0.322,1.16l-0.629,1.854H81.407z"/>
	<path fill="#FFFFFF" d="M88.835,35.669c0.399-0.065,0.922-0.124,1.587-0.124c0.818,0,1.417,0.189,1.797,0.533
		c0.352,0.304,0.563,0.77,0.563,1.34c0,0.58-0.173,1.036-0.495,1.369c-0.438,0.466-1.148,0.703-1.958,0.703
		c-0.247,0-0.478-0.01-0.665-0.057V42h-0.827L88.835,35.669L88.835,35.669z M89.662,38.758c0.181,0.049,0.408,0.066,0.686,0.066
		c0.998,0,1.605-0.484,1.605-1.368c0-0.847-0.6-1.255-1.512-1.255c-0.361,0-0.637,0.027-0.779,0.066V38.758z"/>
	<path fill="#FFFFFF" d="M93.889,35.593h0.827v5.714h2.737V42h-3.564V35.593z"/>
	<path fill="#FFFFFF" d="M99.408,39.984L98.742,42h-0.855l2.178-6.407h0.998L103.249,42h-0.886l-0.684-2.016H99.408z
		 M101.509,39.338l-0.627-1.844c-0.144-0.418-0.237-0.799-0.333-1.17h-0.02c-0.096,0.381-0.199,0.771-0.322,1.16l-0.628,1.854
		H101.509z"/>
	<path fill="#FFFFFF" d="M104.672,36.297h-1.949v-0.704h4.744v0.704h-1.959V42h-0.836V36.297z"/>
	<path fill="#FFFFFF" d="M108.178,35.593h3.449v0.694h-2.623v2.129h2.424v0.686h-2.424V42h-0.827
		C108.178,42,108.178,35.593,108.178,35.593z"/>
	<path fill="#FFFFFF" d="M118.277,38.73c0,2.205-1.34,3.373-2.975,3.373c-1.693,0-2.885-1.313-2.885-3.25
		c0-2.035,1.268-3.365,2.979-3.365C117.146,35.488,118.277,36.828,118.277,38.73z M113.307,38.834c0,1.369,0.741,2.596,2.045,2.596
		c1.313,0,2.053-1.207,2.053-2.662c0-1.271-0.666-2.604-2.045-2.604C113.991,36.163,113.307,37.428,113.307,38.834z"/>
	<path fill="#FFFFFF" d="M119.35,35.678c0.418-0.085,1.02-0.133,1.586-0.133c0.885,0,1.455,0.162,1.854,0.523
		c0.323,0.285,0.504,0.723,0.504,1.217c0,0.846-0.532,1.406-1.208,1.635v0.029c0.494,0.17,0.789,0.627,0.941,1.292
		c0.209,0.894,0.361,1.512,0.494,1.759h-0.855c-0.104-0.182-0.247-0.732-0.428-1.53c-0.19-0.884-0.532-1.217-1.283-1.245h-0.779V42
		h-0.826V35.678z M120.176,38.598h0.846c0.888,0,1.445-0.486,1.445-1.218c0-0.827-0.6-1.188-1.474-1.198
		c-0.399,0-0.685,0.039-0.817,0.076V38.598z"/>
	<path fill="#FFFFFF" d="M129.857,39.186c-0.047-0.893-0.104-1.967-0.094-2.766h-0.029c-0.219,0.751-0.484,1.549-0.812,2.434
		l-1.131,3.108h-0.628l-1.036-3.052c-0.304-0.902-0.563-1.73-0.737-2.49h-0.021c-0.02,0.799-0.064,1.873-0.123,2.833L125.077,42
		h-0.789l0.446-6.407h1.056l1.093,3.099c0.268,0.789,0.485,1.492,0.646,2.158h0.027c0.159-0.646,0.391-1.35,0.676-2.158l1.141-3.099
		h1.057L130.828,42h-0.809L129.857,39.186z"/>
</g>
</svg>
